<svg width="418" height="61" viewBox="0 0 418 61" fill="none" xmlns="http://www.w3.org/2000/svg">
<path d="M23.2519 0.0322495H23.5744C30.7122 0.0322495 36.8074 2.9562 41.8598 8.8041C45.1277 13.19 46.7617 17.9629 46.7617 23.1229V23.4454C46.7617 30.5832 43.7733 36.6461 37.7964 41.6341C33.4534 44.859 28.6913 46.4715 23.5099 46.4715H23.1874C16.0925 46.4715 10.0188 43.569 4.96642 37.7641C3.20345 35.2917 1.96722 33.0234 1.25773 30.9595C0.419243 28.3795 0 25.8533 0 23.3809V23.0584C0 16.0495 2.8917 10.0511 8.6751 5.06317C12.588 2.26821 16.157 0.698738 19.3819 0.354744C20.3709 0.139748 21.6609 0.0322495 23.2519 0.0322495ZM9.28784 23.1874C9.28784 27.2293 10.8681 30.7767 14.0285 33.8297C16.845 36.2376 19.8012 37.4416 22.8971 37.4416H23.8001C26.2941 37.4416 28.831 36.5924 31.411 34.8939C34.0769 32.9374 35.8829 30.4435 36.8289 27.412C37.1299 26.6166 37.3449 25.2513 37.4739 23.3164C37.4739 19.3604 35.9366 15.8667 32.8622 12.8353C29.9812 10.2768 26.8208 8.9976 23.3809 8.9976C19.3604 8.9976 15.7915 10.6746 12.674 14.0285C11.3626 15.7485 10.5348 17.2105 10.1908 18.4144C9.58884 20.0914 9.28784 21.6824 9.28784 23.1874Z" fill="black"/>
<path d="M66.3694 0.0322495H97.6836V9.57809H66.0791C63.6067 9.57809 62.091 10.7928 61.532 13.2223V13.8995C61.532 15.34 62.3382 16.544 63.9507 17.5115C64.4452 17.705 64.9612 17.8017 65.4986 17.8017H81.3976C85.4826 17.8017 88.256 18.2209 89.718 19.0594C93.3299 20.6719 95.8239 23.1336 97.1999 26.4446C97.9738 28.487 98.3608 30.4757 98.3608 32.4107C98.3608 37.0546 96.1894 40.9676 91.8465 44.1495C90.5565 44.9665 89.073 45.6007 87.396 46.0522C86.149 46.3317 84.0743 46.4715 81.1719 46.4715H51.6314L51.5991 36.9256H83.3326C85.9986 36.9256 87.697 35.6142 88.428 32.9912L88.4925 32.1205C88.4925 30.2715 87.5788 28.8525 85.7513 27.8635C85.1063 27.5195 84.2786 27.3475 83.2681 27.3475H65.4341C60.7687 27.3475 56.8773 25.3051 53.7598 21.2201C52.4054 18.9627 51.7281 16.673 51.7281 14.351V13.0933C51.7281 8.32036 54.0501 4.54717 58.694 1.77372C60.629 0.61274 63.1874 0.0322495 66.3694 0.0322495Z" fill="black"/>
<path d="M149.96 0V9.02985H128.192C123.935 9.02985 120.667 9.96508 118.388 11.8356C117.141 12.631 116.012 13.792 115.002 15.3185C113.346 17.9629 112.518 20.6504 112.518 23.3809C112.518 26.0898 113.475 28.874 115.389 31.7335C116.937 33.9909 119.398 35.6894 122.774 36.8289C124.021 37.2374 125.827 37.4416 128.192 37.4416H149.96V46.278L148.928 46.4715H129.159C123.763 46.4715 119.764 45.805 117.162 44.472C111.551 41.9995 107.52 37.9791 105.069 32.4107C103.822 29.5513 103.198 26.5091 103.198 23.2841C103.198 17.7802 104.94 12.8675 108.423 8.54611C110.401 6.33164 112.26 4.68692 114.002 3.61194C117.141 1.78447 119.989 0.720238 122.548 0.419243C123.451 0.139748 127.041 0 133.319 0H149.96Z" fill="black"/>
<path d="M178.049 0.0322495H178.372C185.51 0.0322495 191.605 2.9562 196.657 8.8041C199.925 13.19 201.559 17.9629 201.559 23.1229V23.4454C201.559 30.5832 198.571 36.6461 192.594 41.6341C188.251 44.859 183.489 46.4715 178.307 46.4715H177.985C170.89 46.4715 164.816 43.569 159.764 37.7641C158.001 35.2917 156.765 33.0234 156.055 30.9595C155.217 28.3795 154.797 25.8533 154.797 23.3809V23.0584C154.797 16.0495 157.689 10.0511 163.472 5.06317C167.385 2.26821 170.954 0.698738 174.179 0.354744C175.168 0.139748 176.458 0.0322495 178.049 0.0322495ZM164.085 23.1874C164.085 27.2293 165.665 30.7767 168.826 33.8297C171.642 36.2376 174.599 37.4416 177.695 37.4416H178.597C181.091 37.4416 183.628 36.5924 186.208 34.8939C188.874 32.9374 190.68 30.4435 191.626 27.412C191.927 26.6166 192.142 25.2513 192.271 23.3164C192.271 19.3604 190.734 15.8667 187.66 12.8353C184.779 10.2768 181.618 8.9976 178.178 8.9976C174.158 8.9976 170.589 10.6746 167.471 14.0285C166.16 15.7485 165.332 17.2105 164.988 18.4144C164.386 20.0914 164.085 21.6824 164.085 23.1874Z" fill="black"/>
<path d="M206.397 0H236.26C241.527 0 245.655 1.58022 248.643 4.74067C249.976 5.98765 250.901 7.19163 251.417 8.35261C252.578 10.6746 253.158 12.9428 253.158 15.1572V16.4795C253.158 19.8764 251.686 23.1981 248.74 26.4446C246.848 28.2505 245.128 29.4115 243.58 29.9275C247.493 34.0984 249.45 39.6131 249.45 46.4715H240.065V45.762C240.065 40.6881 238.012 36.6569 233.905 33.6684C231.562 32.013 228.498 31.1852 224.714 31.1852H206.397V22.2199H236.84C240.172 22.2199 242.43 20.5752 243.612 17.2857C243.741 16.6192 243.827 16.0602 243.87 15.6087C243.87 13.7813 243.107 12.1258 241.581 10.6423C240.269 9.61034 238.872 9.09435 237.388 9.09435C237.388 9.00835 236.937 8.96535 236.034 8.96535H206.397V0Z" fill="black"/>
<path d="M258.06 0.0322495H283.924C293.298 0.0322495 299.802 4.12793 303.435 12.3193C304.317 14.5983 304.757 17.0492 304.757 19.6722C304.757 25.1331 302.629 29.906 298.372 33.9909C295.749 36.3129 292.535 37.8824 288.729 38.6994C287.461 38.8928 285.977 38.9896 284.279 38.9896L267.38 39.1831V46.4715H257.996V29.992H283.537C286.87 29.992 289.31 29.3685 290.858 28.1215C292.836 26.8531 294.255 24.8106 295.115 21.9941C295.287 21.1771 295.373 20.5214 295.373 20.0269V19.0594C295.373 16.63 294.33 14.265 292.245 11.9645C290.073 10.0511 287.665 9.09435 285.021 9.09435H258.06V0.0322495Z" fill="black"/>
<path d="M335.91 0H356.26V9.02985H334.588C330.675 9.02985 327.708 9.75009 325.687 11.1906C322.935 12.631 320.828 15.4152 319.366 19.5432C319.044 20.9406 318.883 22.1446 318.883 23.1551C318.883 26.6596 320.194 29.949 322.817 33.0234C324.537 34.6789 326.15 35.7754 327.654 36.3129C329.31 37.0654 331.578 37.4416 334.459 37.4416H356.26V46.4715H335.491C330.181 46.4715 326.246 45.8265 323.688 44.5365C317.969 42.0425 313.873 37.9576 311.401 32.2817C310.197 29.4438 309.595 26.4231 309.595 23.2196C309.595 16.2967 312.336 10.3843 317.818 5.48241C321.409 2.77345 324.655 1.17173 327.558 0.677239C329.041 0.225746 331.825 0 335.91 0ZM331.976 18.7692H356.26V27.7023H331.976V18.7692Z" fill="black"/>
<path d="M361.194 0.0322495H371.707L385.188 16.1892L398.668 0.0322495H409.246L390.863 23.2519L417.032 60.0695H406.519L385.188 30.3145L371.707 46.4715H361.194L379.512 23.2519L361.194 0.0322495Z" fill="black"/>
</svg>
