<svg width="95" height="66" viewBox="0 0 95 66" fill="none" xmlns="http://www.w3.org/2000/svg">
<mask id="path-1-outside-1_80_198" maskUnits="userSpaceOnUse" x="0" y="0" width="95" height="66" fill="black">
<rect fill="white" width="95" height="66"/>
<path d="M1.81021 1.02016L1.52949 1.02163C1.19763 1.02267 1.02833 0.954314 1.00283 1.32611L1.00118 1.60078C0.961712 4.48218 1.92141 7.80199 2.90669 10.4761C2.98243 10.6803 3.05659 10.8847 3.12765 11.0906C3.39092 11.8671 3.65222 12.6336 4.00918 13.3732C4.08951 13.5377 4.1694 13.7025 4.24737 13.8681C4.67518 14.7833 5.11504 15.6889 5.59468 16.5782C5.65193 16.6837 5.70914 16.7893 5.76628 16.8949C6.02144 17.3763 6.28276 17.8465 6.57725 18.3051C6.80676 18.6596 7.01898 19.0193 7.22093 19.3902L7.29281 19.5244H7.46243C7.46243 19.7462 7.46243 19.7462 7.71685 20.1181H7.88646V20.3726H8.05608C8.05608 20.5422 8.05608 20.5422 8.16142 20.7258L8.29991 20.9345C8.43705 21.1446 8.43705 21.1446 8.56492 21.3056H8.73454C8.73454 21.4752 8.73454 21.4752 8.84055 21.629L8.98896 21.8145L9.15427 22.0219L9.32819 22.2386C9.68351 22.6944 10.0465 23.1367 10.436 23.5639C10.6945 23.844 10.9474 24.1267 11.1939 24.4174C11.3317 24.5827 11.3318 24.5828 11.4484 24.6984H11.618C11.618 24.868 11.618 24.868 11.773 25.0456L11.9784 25.2497C12.171 25.4436 12.3372 25.6069 12.576 25.7401L12.7205 25.8011V25.9707H12.8901V26.1403H13.0597L13.0597 26.31C13.4026 26.5472 13.4026 26.5472 13.6852 26.8613C13.8932 27.0822 14.0696 27.2946 14.3616 27.3994L14.5014 27.4126V27.5823H14.671L14.6711 27.7519C15.0482 27.9961 15.0483 27.9961 15.3813 28.3033L15.5297 28.4348L15.6748 28.5604C15.8305 28.6973 15.9292 28.7656 16.1295 28.8253L16.2824 28.8546V29.0242L16.7064 29.1939V29.3635H16.9608V29.5331L17.1251 29.6392C17.2701 29.722 17.414 29.807 17.5532 29.8993C18.175 30.3216 18.8119 30.708 19.4732 31.0652C19.6836 31.1781 19.891 31.2896 20.0911 31.4197C20.4208 31.6415 20.7597 31.8138 21.122 31.9754L21.3072 32.0565C21.5852 32.1784 21.8592 32.3043 22.1532 32.3823L22.3037 32.417C22.2482 32.6833 22.2482 32.6833 22.0387 32.7623C21.2939 33.0355 20.6099 33.3959 19.9144 33.7745L19.7595 33.859C19.5753 33.9581 19.3918 34.0579 19.2096 34.1605L18.9962 34.2831C18.8142 34.3877 18.6323 34.4926 18.4508 34.598L18.2541 34.7125C17.9292 34.9002 17.6151 35.0839 17.3189 35.3152C17.139 35.4704 17.139 35.4704 16.9592 35.5779L16.5368 35.8098V35.9795L16.1128 36.1491V36.3188C15.8583 36.3188 15.8583 36.3188 15.6039 36.5255C15.3309 36.7715 15.0486 37.0016 14.7611 37.2306C14.6146 37.3466 14.4704 37.4657 14.3318 37.5911V37.7607H14.0774V37.9303C13.9078 37.9303 13.9078 37.9304 13.6852 38.1477C13.4763 38.3654 13.2581 38.5626 13.0278 38.7574C12.851 38.9045 12.851 38.9045 12.7205 39.033V39.2027H12.4661C12.1972 39.606 11.874 39.9621 11.5338 40.307C11.2563 40.5808 10.9837 40.8541 10.7275 41.1482C10.6289 41.2634 10.53 41.3782 10.4307 41.4928L10.2458 41.6933L10.0596 41.8957L10.0526 41.9033C9.88354 42.0847 9.76714 42.2097 9.6906 42.4484L9.66742 42.5955H9.4978V42.7651H9.32819L9.22416 42.8807L9.10557 43.0461L8.9714 43.2319L8.81934 43.4437L8.63813 43.6845L8.45361 43.9314L8.43599 43.9549C8.28295 44.1587 8.15635 44.3274 8.07894 44.5742L8.05608 44.716H7.88646C7.80264 44.8335 7.71978 44.9518 7.64256 45.0737C7.57944 45.1738 7.51479 45.273 7.4486 45.3711L7.44771 45.3724C7.08961 45.8949 6.73299 46.4151 6.43414 46.9743C6.31046 47.2107 6.18478 47.4389 6.04157 47.6641C5.6086 48.3343 5.26335 49.028 4.92469 49.7497L4.91574 49.7688C4.74467 50.134 4.57388 50.4987 4.38949 50.8575C3.6819 52.2275 3.19787 53.662 2.71885 55.1257C2.63978 55.3674 2.56075 55.6089 2.47665 55.8489C1.80516 57.7124 1.43531 59.7183 1.15777 61.6768L1.12309 61.9292C1.06393 62.3451 1.01866 62.7536 1.01281 63.1742L1.01435 63.4913C1.01505 63.6792 1.01589 63.8671 1.01708 64.055C2.11493 64.0568 3.21279 64.0582 4.31065 64.0591L4.47766 64.0593C4.98374 64.0596 5.48983 64.06 5.99592 64.0608C6.5441 64.0618 7.09229 64.0626 7.64047 64.0629C7.85101 64.063 8.06154 64.0631 8.27207 64.0633C9.58836 64.0662 10.8976 64.0523 12.2116 63.9702C12.2964 63.7157 12.2964 63.7157 12.3125 63.4694L12.3203 63.17C12.3252 63.0018 12.33 62.8335 12.3344 62.6652C12.3619 61.5869 12.4126 60.522 12.551 59.4518L12.5827 59.2149C12.6576 58.6493 12.7354 58.0842 12.8209 57.52L12.853 57.3118C12.921 56.8616 13.0095 56.4334 13.1445 55.9971C13.2451 55.7131 13.3177 55.464 13.3618 55.1648L13.3989 54.8944C13.4837 54.8096 13.4837 54.8096 13.5473 54.5127C13.62 54.173 13.7083 53.8397 13.8043 53.506L13.8601 53.3146C13.9598 52.9666 14.0656 52.6324 14.2059 52.2981C14.2874 52.1119 14.3631 51.923 14.4315 51.7315C14.6052 51.2217 14.7923 50.7278 15.0209 50.2399L15.0361 50.2079C15.1435 49.9819 15.25 49.7577 15.3415 49.5246C15.4461 49.2331 15.558 48.9565 15.6993 48.6813C15.7905 48.5102 15.8589 48.3611 15.9107 48.1737L15.9431 48.024H16.1128C16.1697 47.9111 16.2261 47.7979 16.2824 47.6847C16.542 47.1357 16.8141 46.6179 17.157 46.1155C17.3137 45.8933 17.4507 45.71 17.5316 45.4502L17.5545 45.3097H17.7241L17.8646 45.1175L18.0209 44.8644C18.1622 44.6381 18.2987 44.4136 18.4211 44.1766L18.4874 44.0374H18.657L18.9962 43.3588H19.1658V43.1892H19.3354C19.399 42.9411 19.399 42.9411 19.5339 42.8105C19.7361 42.6241 19.9071 42.4637 20.0457 42.2244L20.0987 42.0865C20.2683 42.0865 20.2683 42.0865 20.3902 41.9686L20.5227 41.8109C20.6637 41.646 20.7759 41.4952 20.8779 41.3033L20.9468 41.1535H21.1164V40.9839H21.286V40.8142H21.5404V40.6446H21.71V40.475H21.8797L22.2189 40.1357C22.3895 40.0241 22.5593 39.9112 22.7277 39.7964V39.6268C22.9918 39.4996 23.2469 39.3654 23.491 39.2027V39.033C23.7105 39.033 23.7105 39.033 24.1694 38.6937V38.5241C24.4521 38.5241 24.4521 38.5241 24.8055 38.259C25.458 37.7696 26.1966 37.415 26.9331 37.0707L27.1854 36.9549C27.9236 36.6158 28.6619 36.322 29.4381 36.0829C29.6024 36.033 29.7624 35.9812 29.9219 35.9175C30.3477 35.7442 30.7729 35.6465 31.2242 35.5604L31.5159 35.5077C34.1781 35.0234 37.3225 34.7918 39.9436 35.6402L40.0284 35.8098H39.8588V35.9795C39.6892 35.9795 39.6892 35.9795 39.5296 36.0916C39.4169 36.1809 39.3028 36.2685 39.1869 36.3536C39.0703 36.4387 38.954 36.5242 38.8378 36.6098L38.6503 36.7482L38.4588 36.8875L38.2779 37.0215C38.1122 37.1431 38.1122 37.1431 37.993 37.2518V37.4214C37.7785 37.4214 37.7785 37.4214 37.3994 37.7607V37.9303H37.145C36.9787 38.0966 36.8048 38.2452 36.6254 38.397C36.4393 38.5533 36.4393 38.5533 36.2969 38.6937V38.8634H36.1273V39.033H35.9577V39.2027C35.7032 39.2027 35.7032 39.2027 35.5482 39.3254L35.3734 39.4996L35.1745 39.6961L34.9608 39.9114C34.8116 40.0601 34.6625 40.2089 34.5134 40.3578C34.2787 40.5942 34.0439 40.8304 33.8077 41.0653C33.6537 41.2182 33.5001 41.3714 33.3468 41.5249L33.1269 41.7456L32.9127 41.9582L32.7146 42.1588C32.5213 42.3528 32.4033 42.4937 32.291 42.7447L32.2261 42.9347H32.0565C31.8476 43.1646 31.6711 43.3737 31.5212 43.6451L31.4629 43.7829H31.2933V44.0374H31.1236C30.9702 44.2093 30.8785 44.3464 30.8109 44.5675L30.7844 44.716H30.6148L30.4521 44.9058L30.2597 45.1666C30.0069 45.509 29.7669 45.8567 29.5388 46.2162L29.5253 46.2379C29.3975 46.4437 29.2699 46.6489 29.135 46.8501C28.6188 47.6068 28.1328 48.3901 27.7261 49.2114C27.5985 49.4761 27.4685 49.7354 27.3249 49.9917C25.5191 53.211 24.5541 57.0483 24.0744 60.6807C24.0374 60.9669 24.0002 61.253 23.961 61.5389C23.9359 61.7201 23.9109 61.9013 23.8861 62.0825L23.8514 62.3374C23.7795 62.8561 23.7149 63.3611 23.7454 63.8853C23.915 64.055 23.915 64.055 24.1094 64.0657L24.3391 64.055C25.6672 64.0512 26.9953 64.0441 28.3234 64.0361C28.959 64.0323 29.5946 64.0286 30.2303 64.0263C30.7902 64.0243 31.3502 64.0219 31.9101 64.0182L31.9927 64.0176C32.2605 64.0157 32.5283 64.0138 32.7961 64.0131C33.0784 64.0126 33.3607 64.0116 33.643 64.0095L33.9543 64.0068L34.2508 64.0072L34.5201 64.004C34.7547 64.0028 34.7548 64.0028 34.94 63.9702C35.1096 63.7157 35.1096 63.7157 35.1315 63.5263L35.1326 63.3017L35.1352 63.0449C35.1356 62.855 35.1367 62.6652 35.1386 62.4753L35.1416 62.1724C35.167 58.778 35.3692 55.4169 36.2442 52.1205L36.2969 51.9257C36.5099 51.1319 36.7567 50.3584 37.0519 49.5913C37.1669 49.2936 37.2758 48.9959 37.3729 48.6919C37.4338 48.4921 37.5062 48.3181 37.5981 48.1293C37.671 47.9866 37.7438 47.8438 37.8146 47.7L37.8322 47.664C38.1069 47.1018 38.38 46.5429 38.7086 46.0095C38.8291 45.8216 38.9194 45.6712 38.9819 45.4568L39.0107 45.3097H39.1803L39.3208 45.1175L39.4772 44.8644C39.6184 44.6381 39.7549 44.4136 39.8773 44.1766L39.9436 44.0374H40.1132C40.2828 43.783 40.2828 43.783 40.3782 43.5974L40.4524 43.4437H40.6221C40.7746 43.2148 40.933 43.0465 41.1339 42.861L41.2687 42.7386C41.6043 42.4334 41.94 42.1345 42.3099 41.8708L42.4878 41.7473C43.6503 40.8956 44.8487 40.46 46.2628 40.246C48.154 40.0176 50.255 40.4366 51.7848 41.6094C51.9489 41.7483 52.0515 41.8262 52.2585 41.8884L52.4103 41.9169V42.0865C52.6647 42.2562 52.6647 42.2562 52.8502 42.3516L53.0039 42.4258V42.5955C53.1791 42.6709 53.1791 42.6709 53.2991 42.8131L53.4438 42.9825C53.552 43.1076 53.6598 43.2331 53.7672 43.3588L53.9321 43.5547L54.0905 43.7405C54.2352 43.9128 54.2353 43.9129 54.3608 44.0374H54.5304C54.5304 44.2296 54.5304 44.2296 54.7935 44.6139L54.9015 44.769C55.0273 44.9554 55.1551 45.1321 55.2937 45.3097H55.4633C55.4633 45.5642 55.4633 45.5642 55.541 45.7097C55.7844 46.0726 56.003 46.4429 56.209 46.8282L56.3167 47.0326C56.5522 47.4789 56.7747 47.9178 56.9421 48.3951C56.9831 48.5268 57.0271 48.6578 57.0747 48.7873C57.201 48.9964 57.3193 49.1838 57.4006 49.4146C57.4745 49.6868 57.5463 49.959 57.6441 50.2237C58.1886 51.5924 58.5036 53.079 58.745 54.5294L58.7761 54.7195C59.175 57.1522 59.3078 59.5452 59.3365 62.009L59.3399 62.3312C59.3422 62.5329 59.3444 62.7347 59.3466 62.9364L59.3484 63.223L59.3511 63.4841C59.352 63.6179 59.3553 63.7518 59.3644 63.8853C59.4493 63.9702 59.4493 63.9702 59.6343 63.9808L59.8839 63.9809L60.1693 63.9817L60.4852 63.9811C60.833 63.9816 61.1809 63.982 61.5288 63.9817C61.841 63.9814 62.1533 63.9815 62.4655 63.9816C62.9876 63.9818 63.5097 63.9818 64.0318 63.9814C64.6409 63.9809 65.2501 63.9808 65.8592 63.9812C66.3854 63.9816 66.9116 63.9818 67.4377 63.9817C67.751 63.9815 68.0642 63.9813 68.3775 63.9816C68.6775 63.9818 68.9774 63.982 69.2774 63.9816L69.6079 63.9811L69.9238 63.9817L70.2092 63.9809C70.3541 63.9809 70.4991 63.9785 70.6438 63.9702C70.7286 63.8853 70.7286 63.8853 70.7399 63.719L70.7392 63.5143C70.7396 63.3835 70.7364 63.2525 70.7286 63.122C70.6273 62.7109 70.6273 62.7108 70.6067 62.2844C70.5814 61.7763 70.5168 61.283 70.4365 60.7806L70.3894 60.4925C70.1899 59.2487 69.955 58.0172 69.6604 56.7926L69.6155 56.6067C69.5729 56.4282 69.5301 56.2498 69.4863 56.0716L69.4452 55.9053C69.3678 55.5908 69.2813 55.3051 69.1568 55.0057C69.0895 54.8537 69.0238 54.7006 68.9676 54.5441L68.9202 54.3924L68.8637 54.2159C68.3496 52.6022 67.6784 51.0595 66.9123 49.5507H66.7427V49.2114H66.5731C66.5731 48.9224 66.5731 48.9224 66.2878 48.4279L66.149 48.1936C66.0615 48.0441 65.9736 47.8948 65.8848 47.7461L65.7939 47.5946C65.6914 47.4234 65.585 47.2544 65.4706 47.0909H65.3009C65.3009 46.8275 65.2552 46.7217 65.1313 46.4972H64.9617C64.9231 46.3045 64.8734 46.1511 64.7818 45.9763L64.6701 45.7974C64.5592 45.6159 64.5592 45.6158 64.4529 45.4794H64.2833C64.2833 45.3097 64.2833 45.3097 64.1965 45.1633L64.0819 45.0022C63.9686 44.8399 63.9686 44.8399 63.8592 44.716H63.6896V44.4615H63.52C63.52 44.247 63.52 44.247 63.1808 43.8678H63.0112C63.0112 43.6981 63.0112 43.6981 62.8502 43.4775L62.6401 43.221C62.514 43.0652 62.3841 42.9122 62.2479 42.7651H62.0783V42.5955H61.9087C61.9087 42.3118 61.9086 42.3118 61.5941 41.9932L61.4568 41.8583C61.3618 41.7631 61.2667 41.6681 61.1716 41.5731C61.0206 41.4243 60.8697 41.2754 60.7199 41.1253C60.6223 41.0273 60.5246 40.9296 60.4266 40.832L60.2854 40.692L60.2618 40.6683C60.0509 40.4569 59.8502 40.2557 59.5878 40.1062L59.4493 40.0509V39.8812L59.4313 39.8608C59.2465 39.6501 59.1005 39.4836 58.8291 39.3882L58.686 39.3723V39.2027H58.5164V39.033H58.3468V38.8634H58.1771V38.6937C57.9474 38.4848 57.7382 38.3083 57.4669 38.1583L57.3291 38.1V37.9303H57.0747V37.7607C56.8202 37.5911 56.8202 37.5911 56.6347 37.4956L56.481 37.4214V37.2518H56.2266V37.0821C56.0447 36.9205 55.8781 36.8237 55.6541 36.727L55.4633 36.658V36.4884C55.2522 36.2953 55.0627 36.1595 54.8008 36.0431L54.6152 35.9795V35.8098L54.3608 35.6402C56.5184 35.1406 58.7689 34.9734 60.9771 35.1879L61.2302 35.2161C62.9083 35.3722 64.5888 35.7948 66.1384 36.4566L66.4034 36.5732C67.2601 36.8738 68.0883 37.2864 68.8629 37.7607L69.1312 37.929C69.2308 37.9913 69.3304 38.0536 69.43 38.1159C69.6748 38.2709 69.8913 38.4164 70.1684 38.5019L70.3046 38.5241V38.6937C70.4742 38.7786 70.4742 38.7786 70.6544 38.8263L70.8134 38.8634V39.033C71.0554 39.2451 71.3311 39.4162 71.6138 39.5684L71.7463 39.6268V39.7964C71.9395 39.8846 71.9395 39.8846 72.1597 40.088C72.3139 40.2187 72.448 40.3182 72.6262 40.4166L72.764 40.475V40.6446H72.9336V40.8142H73.188V40.9839H73.3576V41.2383C73.5978 41.3985 73.7321 41.5384 73.9142 41.7579C74.0682 41.9441 74.0682 41.9441 74.2057 42.0865H74.3753C74.3753 42.2562 74.3753 42.2562 74.4863 42.3718C74.644 42.5245 74.7623 42.6872 74.8895 42.8658C75.0197 43.0497 75.0197 43.0497 75.1386 43.1892H75.3082C75.3082 43.3588 75.3082 43.3588 75.4136 43.5238L75.552 43.7087C75.6892 43.8949 75.6892 43.8949 75.817 44.0374H75.9867C75.9867 44.2296 75.9867 44.2296 76.2497 44.6139L76.3577 44.769C76.4835 44.9554 76.6113 45.1321 76.7499 45.3097H76.9195C76.9195 45.5642 76.9195 45.5642 77.052 45.7762C77.4353 46.3261 77.7988 46.8816 78.0962 47.4832C78.2125 47.7233 78.329 47.9628 78.4536 48.1987L78.5537 48.3851C78.622 48.5122 78.6903 48.6392 78.7588 48.7661C78.9475 49.1116 79.1252 49.4514 79.262 49.8211C79.3301 50.0111 79.4006 50.1938 79.4816 50.379C79.8874 51.2452 80.2416 52.1016 80.5036 53.0217C80.5741 53.2703 80.6446 53.5177 80.7253 53.7632C80.8424 54.0988 80.9419 54.4326 81.0274 54.7778C81.1227 55.1723 81.2268 55.5634 81.3348 55.9547C81.4631 56.4124 81.5514 56.8674 81.6265 57.3368L81.6687 57.6087C81.8408 58.6977 81.9875 59.7857 82.0611 60.886L82.0775 61.1433C82.1048 61.5696 82.1315 61.996 82.1539 62.4227C82.1623 62.5859 82.1712 62.7491 82.1806 62.9123L82.1938 63.1418C82.2049 63.3956 82.2256 63.633 82.2624 63.8853C82.5168 64.055 82.5168 64.055 82.7174 64.0748L82.959 64.0727L83.2364 64.0716L83.5408 64.0678C83.8777 64.0657 84.2146 64.0634 84.5515 64.0598C84.8536 64.0565 85.1557 64.0539 85.4577 64.0516C85.9631 64.0477 86.4685 64.0433 86.9739 64.0382C87.5632 64.0322 88.1525 64.0267 88.7418 64.0221C89.3734 64.0172 90.0049 64.0119 90.6365 64.0062C90.8176 64.0046 90.9988 64.003 91.1799 64.0015C91.4701 63.9991 91.7603 63.9966 92.0504 63.9936L92.3701 63.9903L92.6755 63.988L92.9515 63.9847C93.1458 63.9829 93.3157 64.0266 93.457 63.8853C93.5566 61.3071 92.7831 58.2378 91.9622 55.8115C91.861 55.5223 91.761 55.2344 91.671 54.9414C91.5481 54.5291 91.4242 54.1218 91.2626 53.7228C91.1587 53.4735 91.0611 53.2243 90.9687 52.9704C90.7591 52.3899 90.5383 51.8281 90.2555 51.2789C90.1104 51.0037 89.9817 50.7435 89.8778 50.45L89.8102 50.2293H89.6406C89.5842 49.857 89.4551 49.5523 89.3014 49.2114H89.1318V48.8722H88.9622C88.9216 48.6562 88.8575 48.4935 88.7578 48.2957L88.6176 48.0452C88.535 47.8965 88.4521 47.748 88.3685 47.5999H88.1989C88.1989 47.3454 88.1989 47.3454 88.1247 47.1721L88.0293 46.9902C87.9732 46.8822 87.9168 46.7743 87.8597 46.6668H87.6901C87.6901 46.4972 87.6901 46.4972 87.6092 46.3531C87.4219 46.0658 87.2393 45.7776 87.0699 45.4794L86.9268 45.2249H86.7572C86.7572 45.0054 86.7572 45.0054 86.4179 44.5463H86.2483C86.2483 44.2919 86.2483 44.2919 86.0787 44.0374H85.9091C85.9091 43.8678 85.9091 43.8678 85.8087 43.7233C85.7236 43.6157 85.6391 43.5076 85.5569 43.3978C85.4847 43.3005 85.4121 43.2035 85.3391 43.1067L85.2253 42.956C85.0901 42.7737 84.9531 42.5997 84.8066 42.4258H84.637C84.637 42.1714 84.637 42.1714 84.4892 42.0136C84.2839 41.8189 84.1203 41.611 83.9479 41.3868C83.8426 41.2492 83.7339 41.1139 83.6193 40.9839H83.4497C83.4497 40.8142 83.4497 40.8142 83.3048 40.6487L83.1025 40.4475L82.8799 40.2253L82.644 39.9925L82.6392 39.9877C82.233 39.5818 81.828 39.177 81.3944 38.8001C81.2356 38.6637 81.0782 38.527 80.9247 38.3845L80.7796 38.2464C80.6872 38.1588 80.5949 38.0712 80.5026 37.9834C80.282 37.77 80.0877 37.5407 79.7873 37.4507L79.6334 37.4214V37.2518H79.4638V37.0821C79.3409 36.9754 79.2171 36.8695 79.0884 36.7699L78.9337 36.6527C78.6934 36.4645 78.4719 36.266 78.1745 36.1798L78.022 36.1491V35.9795C77.7676 35.8098 77.7676 35.8098 77.5397 35.7144L77.3436 35.6402V35.4706C77.174 35.3858 77.1739 35.3857 76.9513 35.2956L76.7499 35.2161V35.0465L76.5422 34.903L76.2676 34.7443C76.0051 34.5901 75.7826 34.4652 75.4868 34.3921L75.3082 34.3679V34.1983C74.8696 33.8786 74.8696 33.8786 73.6068 33.2681L73.3682 33.1539C72.9834 32.9696 72.6037 32.7898 72.2015 32.6466L72.0007 32.5867V32.417C72.3302 32.3716 72.6063 32.2597 72.906 32.1178L73.0873 32.03C73.8041 31.6879 74.5148 31.3337 75.2234 30.9751V30.8054C75.4822 30.7277 75.7142 30.6459 75.9502 30.5132L76.4077 30.2127C76.5404 30.1248 76.6731 30.0369 76.8069 29.9508L76.9517 29.8582L77.2323 29.6763C77.493 29.5077 77.4931 29.5076 77.6828 29.3635V29.1939C77.9921 29.1939 77.9921 29.1939 78.3613 28.8546V28.6849H78.6157C78.7734 28.5209 78.7734 28.5209 78.9135 28.4131L79.0616 28.3006C79.1708 28.2166 79.2802 28.1326 79.3896 28.0488C79.5891 27.8976 79.7812 27.7442 79.9726 27.5823V27.4126L80.3966 27.243V27.0734H80.5663V26.9037C80.7553 26.9037 80.7553 26.9037 81.1278 26.5332L81.2881 26.3709C81.4008 26.2581 81.5135 26.1452 81.6262 26.0323C81.8031 25.8538 81.98 25.6753 82.1576 25.4975C82.2732 25.3818 82.3888 25.2661 82.5042 25.1503L82.6715 24.982C82.9911 24.6618 83.3023 24.3379 83.5999 23.9971C83.7309 23.845 83.8617 23.6936 83.9976 23.5459L84.1142 23.4221L84.3296 23.1928C84.5295 22.9814 84.695 22.8265 84.7887 22.5501L84.8066 22.4082H84.9762L85.0872 22.2727L85.2306 22.069L85.435 21.8095L85.66 21.5229C85.8652 21.2656 86.0537 21.0219 86.1897 20.7195L86.2483 20.5422H86.4179V20.2877H86.5876C86.7752 19.9283 86.9552 19.5909 87.2183 19.2805C87.5624 18.8915 87.8578 18.3837 88.0015 17.8843L88.0293 17.7431H88.1989L88.3228 17.5198L88.4851 17.2236C88.6444 16.9344 88.7853 16.6606 88.8966 16.3496L88.9622 16.1315H89.1318L89.2216 15.9208L89.3385 15.6438L89.3408 15.6384C89.443 15.3972 89.5421 15.1636 89.6118 14.9109L89.6406 14.7744H89.8102C89.8287 14.5817 89.8287 14.5817 89.8951 14.3503C90.1224 14.0187 90.3037 13.7067 90.4537 13.3356C90.503 13.2103 90.5527 13.0851 90.6029 12.96L90.6805 12.7669C90.7685 12.5463 90.8585 12.3275 90.9515 12.1089C91.1161 11.7255 91.2682 11.3479 91.3845 10.9469C91.4441 10.7353 91.5068 10.5323 91.5882 10.328C91.7495 9.94566 91.8804 9.57491 91.9781 9.17099C92.0281 8.94947 92.0779 8.73088 92.1527 8.51628C92.3674 7.91492 92.504 7.29734 92.6395 6.67449L92.6831 6.47264C92.9095 5.42845 93.1099 4.38287 93.2646 3.32551L93.2926 3.13285C93.3202 2.94907 93.3474 2.76531 93.373 2.58125L93.3963 2.41055C93.4345 2.13505 93.4638 1.8773 93.4402 1.59972L93.4157 1.3959C93.4014 1.27508 93.387 1.15429 93.3721 1.03354C92.0019 1.03166 90.6317 1.03016 89.2614 1.02928C88.5955 1.02885 87.9296 1.02838 87.2636 1.02744C86.6785 1.02659 86.0935 1.02589 85.5084 1.02562L85.4213 1.0256C85.1415 1.02551 84.8618 1.02542 84.5821 1.02494C84.2863 1.02435 83.9905 1.02385 83.6948 1.02388L83.3689 1.02392L83.0574 1.02299L82.776 1.02334C82.633 1.02321 82.4899 1.02539 82.3472 1.03354C82.2624 1.11836 82.2624 1.11836 82.2399 1.34889C82.2312 1.50766 82.2225 1.66644 82.2134 1.8252L82.2033 2.00018C82.1862 2.3121 82.1678 2.62393 82.1488 2.93574L82.1372 3.1239C82.0601 4.3783 81.9315 5.61646 81.749 6.85995L81.7218 7.04518C81.6219 7.74109 81.508 8.42318 81.3226 9.10207C81.2414 9.38906 81.1625 9.67355 81.0978 9.96471C80.9605 10.634 80.7533 11.2718 80.5324 11.9172L80.5302 11.9236C80.4308 12.2134 80.3317 12.5025 80.2439 12.7961C80.1567 13.0952 80.0703 13.386 79.9517 13.6744L79.9477 13.6827C79.8086 13.971 79.6699 14.2585 79.5515 14.5561C78.9988 16.0058 78.2272 17.5248 77.3621 18.817L77.2164 19.0207L77.0617 19.2394C76.8418 19.5489 76.6264 19.8424 76.4743 20.1923L76.4107 20.3726H76.2411L76.1033 20.5687C75.7289 21.1567 75.321 21.7169 74.8524 22.2333C74.688 22.4085 74.5558 22.5579 74.4409 22.7691L74.3753 22.9172H74.2057C74.0456 23.1574 73.9057 23.2917 73.6863 23.4738C73.5001 23.6279 73.5001 23.6279 73.3576 23.7654V23.935H73.188C73.0502 24.0516 73.0502 24.0517 72.9336 24.1895V24.3591H72.764V24.5288H72.5944V24.6984C72.34 24.7832 72.34 24.7832 72.1481 24.9154L71.9424 25.0748C71.7347 25.2335 71.7346 25.2336 71.5767 25.377V25.5466H71.4071C71.1666 25.7886 70.9164 25.9612 70.6279 26.1456C70.4605 26.2523 70.2952 26.3626 70.135 26.4796V26.6493C69.8805 26.6493 69.8805 26.6493 69.7205 26.7622C69.5325 26.9106 69.3441 27.0186 69.1332 27.1317C68.9091 27.2514 68.6845 27.3701 68.4627 27.494C67.8628 27.8314 67.2688 28.132 66.6208 28.3669C66.3386 28.4674 66.0568 28.5618 65.7879 28.6949C65.2909 28.9725 64.7602 29.1043 64.2098 29.2359L64.0288 29.2787C62.1699 29.7277 60.3136 29.93 58.4013 29.8791L58.1771 29.8724C57.4483 29.8551 56.7356 29.7707 56.0137 29.6727L55.6965 29.6286L55.387 29.5871L55.0963 29.5444C54.7615 29.4966 54.5762 29.4627 54.3608 29.1939H54.6152V29.0242C54.9245 29.0242 54.9245 29.0242 55.2937 28.6849V28.5153C55.5899 28.4165 55.8058 28.2754 56.057 28.0912V27.9216H56.2266V27.7519C56.481 27.7519 56.481 27.7519 56.6357 27.6466L56.7937 27.5081C56.9537 27.3709 56.9537 27.3709 57.0747 27.243V27.0734C57.2443 27.0734 57.2443 27.0734 57.4649 26.9123L57.7213 26.7023C57.8771 26.5761 58.0301 26.4462 58.1771 26.31C58.1771 26.2523 58.2957 26.3189 58.2957 26.2629C58.3533 26.2629 58.2908 26.1403 58.3468 26.1403C58.3468 26.0827 58.4139 26.1447 58.4608 26.0978C58.5076 26.051 58.4604 25.9707 58.5164 25.9707C58.5164 25.913 58.5588 25.8994 58.5588 25.8435C58.7602 25.8093 58.837 25.732 58.9947 25.5989C59.2584 25.3135 59.5285 25.0499 59.8256 24.7991C60.0001 24.6544 60.0002 24.6543 60.1277 24.5288V24.3591H60.2973V24.1895H60.4669V24.0198C60.7214 23.935 60.7214 23.935 60.8522 23.8021C61.0505 23.5615 61.2484 23.3232 61.4687 23.1024C61.7926 22.79 62.0991 22.466 62.3956 22.1277L62.5341 21.9682C62.7687 21.7023 62.9763 21.466 63.1258 21.1422L63.1808 20.9663H63.3504C63.5434 20.7551 63.6792 20.5656 63.7956 20.3036L63.8592 20.1181H64.0288L64.1451 19.9352C64.2895 19.6832 64.4534 19.4596 64.6278 19.2275C64.8037 18.9943 64.9501 18.7875 65.0674 18.5198L65.1313 18.3369H65.3009C65.475 17.9345 65.4751 17.9344 65.725 17.5735C66.0283 17.1474 66.2876 16.7174 66.5201 16.2482C66.6755 15.929 66.8317 15.6113 67.0011 15.2992C67.4733 14.433 67.8501 13.5517 68.195 12.6274L68.2094 12.5881C68.2847 12.3834 68.3599 12.1787 68.4388 11.9754C68.6036 11.5965 68.7473 11.227 68.8629 10.8303C68.9166 10.6457 68.9732 10.4619 69.0325 10.279C69.2062 9.89558 69.3374 9.52952 69.4363 9.12035L69.4853 8.9099C69.5405 8.67754 69.5953 8.44512 69.6492 8.21246L69.7056 7.9676C69.9926 6.7315 70.2496 5.504 70.4116 4.24445C70.4426 3.99392 70.4748 3.74397 70.5115 3.4942L70.5501 3.24318C70.5742 3.08447 70.5984 2.92576 70.6226 2.76706C70.7088 2.2185 70.7689 1.67457 70.7286 1.11836C70.6438 1.03354 70.6438 1.03354 70.4603 1.02263L70.213 1.0222L69.9301 1.02111L69.617 1.02122C69.2722 1.02031 68.9274 1.01949 68.5825 1.01939C68.3353 1.01935 68.088 1.01919 67.8407 1.01889C67.2606 1.01819 66.6806 1.01775 66.1005 1.01781C65.4966 1.01787 64.8927 1.01742 64.2888 1.01609C63.7671 1.01493 63.2455 1.01419 62.7238 1.01411L62.6171 1.01413C62.342 1.01417 62.0669 1.01421 61.7918 1.01355C61.4945 1.01269 61.1972 1.01204 60.8998 1.01245L60.5718 1.01294L60.2593 1.0115L59.9757 1.01257C59.7282 1.01243 59.7282 1.01243 59.5341 1.03354C59.3644 1.20318 59.3644 1.20318 59.342 1.35838L59.3401 1.54936L59.3366 1.76739L59.3353 2.00533L59.3281 2.51075C59.3231 2.9668 59.3164 3.42277 59.3081 3.87877L59.3028 4.15268C59.2823 5.23453 59.2332 6.30989 59.1351 7.38786L59.11 7.64952C59.0041 8.75572 58.8356 9.84789 58.6347 10.9404L58.6012 11.1219C58.4957 11.6991 58.3987 12.2758 58.2103 12.8328C58.1418 13.0232 58.0821 13.2036 58.0327 13.4004C57.6674 15.0786 56.9595 16.6852 56.1524 18.1937L56.1308 18.2333C55.9754 18.5183 55.8224 18.7988 55.6959 19.0986L55.6329 19.2699H55.4633C55.3444 19.5733 55.2415 19.8205 55.0446 20.081C54.8031 20.3664 54.5985 20.6672 54.4244 20.9981L54.3608 21.1359H54.1912C54.0161 21.333 53.8714 21.5241 53.746 21.7562L53.6824 21.8993H53.5127C53.3256 22.1802 53.1309 22.333 52.8661 22.5408C52.7109 22.6622 52.5581 22.7869 52.4103 22.9172V23.0868C52.1558 23.0868 52.1558 23.0868 52.0502 23.1905L51.9014 23.3413C50.459 24.2908 48.8624 24.9262 47.1045 24.8783L46.8978 24.868C45.479 24.817 44.181 24.3797 42.9914 23.6116L42.9804 23.6042C42.7785 23.4666 42.6122 23.3533 42.3768 23.282L42.2334 23.2564L42.2334 23.0868C41.979 22.9172 41.979 22.9172 41.7934 22.8217L41.6397 22.7475V22.5779C40.9766 22.0724 40.9766 22.0724 40.4683 21.3957C40.3539 21.2494 40.2365 21.1052 40.1132 20.9663H39.9436C39.9436 20.7967 39.9436 20.7967 39.8101 20.5999C39.3058 19.9304 38.8709 19.2555 38.4747 18.5174C38.3995 18.3774 38.3242 18.2375 38.2475 18.0983C37.9686 17.5937 37.6749 17.0971 37.5001 16.545C37.456 16.3801 37.456 16.38 37.3994 16.2164C37.0346 15.5222 37.0346 15.5222 36.7875 14.7747L36.7315 14.6048C36.4118 13.6397 36.1188 12.6753 35.9154 11.6781L35.8728 11.4664C35.3032 8.74166 35.1575 5.99791 35.1392 3.2209L35.1373 2.89187C35.1358 2.68548 35.1342 2.4791 35.1328 2.27272L35.1331 1.98241L35.1312 1.716C35.1308 1.39305 35.1256 1.31207 34.94 1.03354L34.7474 1.00176L34.5022 1.0018L34.2211 1L33.9113 1.00196C33.5694 1.00098 33.2274 1.00019 32.8854 1.00146C32.5786 1.00263 32.2717 1.00286 31.9648 1.0027C31.4514 1.00243 30.9381 1.00294 30.4247 1.00443C29.8261 1.00624 29.2275 1.00728 28.6289 1.00677C28.0493 1.00626 27.4697 1.00629 26.8902 1.00723L26.8805 1.00725C26.6379 1.00765 26.3954 1.00805 26.1529 1.00796C25.8582 1.00775 25.5635 1.0078 25.2688 1.00893L24.9436 1.01025L24.6339 1.00961L24.3528 1.01143C24.0487 1.01209 23.9641 0.984418 23.7454 1.20318C23.7295 1.48945 23.7295 1.48945 23.7454 1.79693C23.7955 1.98957 23.8326 2.16325 23.8502 2.36246C23.8914 3.05664 23.9776 3.73945 24.0832 4.42609L24.1111 4.6066C24.2572 5.55853 24.4083 6.5074 24.6296 7.44526L24.6783 7.64952C24.8843 8.52923 25.0773 9.41693 25.3833 10.2683C25.489 10.5448 25.5936 10.8201 25.6875 11.1009C26.1624 12.5497 26.7263 13.9122 27.3921 15.2833H27.5617C27.5617 15.5671 27.6459 15.7269 27.7771 15.9738L27.8692 16.1422C28.0692 16.5128 28.2737 16.8748 28.5105 17.2236C28.7285 17.5372 28.9159 17.8612 29.0982 18.1967L29.1731 18.3369H29.3427C29.4223 18.5546 29.5052 18.7497 29.6289 18.9462L29.7667 19.1374L29.9241 19.3564C30.0214 19.4917 30.1185 19.6272 30.2138 19.764C30.2898 19.8737 30.366 19.9832 30.4424 20.0926L30.5565 20.2559C30.6844 20.4418 30.8142 20.6192 30.954 20.7967H31.1236V20.9663H31.2933C31.2933 21.1359 31.2933 21.1359 31.4327 21.3351L31.6166 21.5653C31.7985 21.7963 32.1619 22.1919 32.3351 22.3798C32.6077 22.6805 32.8759 22.9835 33.1378 23.2936C33.2796 23.4629 33.2796 23.4629 33.4134 23.5957L33.6679 23.6805V23.8502H33.8375V24.0198H34.0071V24.1895H34.1767V24.3591C34.3538 24.4371 34.3538 24.4371 34.4925 24.5846L34.6663 24.7647C34.7966 24.8979 34.9267 25.0313 35.0566 25.1649L35.254 25.37L35.4455 25.5651L35.4588 25.5789C35.6294 25.7552 35.741 25.8705 35.9791 25.9483L36.1273 25.9707V26.1403H36.2969V26.31H36.4665V26.4796C36.7428 26.7704 37.0373 27.0218 37.3994 27.1953L37.569 27.243V27.4126C37.6819 27.5076 37.7957 27.6017 37.9137 27.6904C38.0137 27.7641 38.1133 27.8382 38.2125 27.9128L38.3657 28.0286C38.6428 28.2376 38.9123 28.4538 39.1803 28.6743C39.4002 28.8561 39.6204 29.0371 39.8429 29.2157L40.0284 29.3635C38.4822 29.7665 36.8758 29.8933 35.2826 29.894L35.1043 29.8936C34.1908 29.8926 33.3027 29.8463 32.4012 29.698L32.2102 29.6657C31.8461 29.6069 31.494 29.5418 31.1382 29.4427L30.8692 29.3635C30.3639 29.2926 29.9362 29.1733 29.4593 28.9924C29.2579 28.9157 29.0565 28.8443 28.8514 28.7777C27.5047 28.3456 26.2269 27.6805 25.0228 26.9408C24.8399 26.8236 24.696 26.7392 24.4871 26.6787L24.3391 26.6493V26.4796C24.0147 26.2892 24.0147 26.2892 23.7136 26.0608C23.4923 25.8964 23.2805 25.7396 23.0371 25.6099L22.8973 25.5466V25.377L22.7609 25.255L22.5793 25.1225C22.399 24.9889 22.2256 24.8715 22.0267 24.7673L21.8797 24.6984V24.5288H21.71V24.3591H21.5404V24.1895H21.286V24.0198H21.1164V23.7654C20.8762 23.6052 20.7419 23.4653 20.5598 23.2458C20.4058 23.0596 20.4058 23.0596 20.2683 22.9172H20.0987V22.7475H19.9291C19.8443 22.4931 19.8443 22.4931 19.6935 22.2827L19.5104 22.0531C19.3278 21.8215 19.3278 21.8215 19.1658 21.6449H18.9962C18.9962 21.4253 18.9962 21.4253 18.657 20.9663H18.4874C18.4874 20.7967 18.4874 20.7967 18.4006 20.6502L18.2859 20.4892C18.1727 20.3268 18.1726 20.3268 18.0633 20.2029H17.8937V19.9485H17.7241C17.7241 19.7788 17.7241 19.7788 17.575 19.5469C17.3612 19.2354 17.1638 18.9157 16.9668 18.5934L16.7064 18.1672C16.1423 17.2676 15.6487 16.3313 15.2753 15.3364C15.2184 15.1761 15.1591 15.0167 15.0951 14.8592C14.9103 14.6745 14.8377 14.4999 14.7421 14.2597L14.6763 14.0906C14.5379 13.7438 14.4073 13.3957 14.2893 13.0414C14.2258 12.8478 14.1623 12.6544 14.0972 12.4614L14.032 12.2692L13.9025 11.8852C13.7777 11.5191 13.6568 11.1552 13.5649 10.7793C13.5385 10.6689 13.5114 10.5587 13.4837 10.4486C12.7908 8.20616 12.4339 5.82118 12.3644 3.47688L12.3586 3.27352C12.3498 2.96748 12.341 2.66146 12.3357 2.35533L12.3328 2.17607L12.3256 1.83801C12.3199 1.47777 12.3288 1.33663 12.1268 1.03354L11.934 1.002L11.6884 1.00237L11.407 1.00094L11.0969 1.00331C10.7545 1.00276 10.4121 1.0024 10.0697 1.00405C9.76255 1.00556 9.4554 1.00606 9.14824 1.00615C8.6345 1.00627 8.12076 1.00712 7.60702 1.00896C6.9415 1.01141 6.276 1.0129 5.61048 1.01328C5.03486 1.01361 4.45924 1.01443 3.88362 1.01559C3.69946 1.01597 3.51531 1.01632 3.33115 1.01656C3.03608 1.01694 2.74101 1.01749 2.44594 1.0186L2.12088 1.01988L1.81021 1.02016Z"/>
</mask>
<path d="M1.81021 1.02016L1.52949 1.02163C1.19763 1.02267 1.02833 0.954314 1.00283 1.32611L1.00118 1.60078C0.961712 4.48218 1.92141 7.80199 2.90669 10.4761C2.98243 10.6803 3.05659 10.8847 3.12765 11.0906C3.39092 11.8671 3.65222 12.6336 4.00918 13.3732C4.08951 13.5377 4.1694 13.7025 4.24737 13.8681C4.67518 14.7833 5.11504 15.6889 5.59468 16.5782C5.65193 16.6837 5.70914 16.7893 5.76628 16.8949C6.02144 17.3763 6.28276 17.8465 6.57725 18.3051C6.80676 18.6596 7.01898 19.0193 7.22093 19.3902L7.29281 19.5244H7.46243C7.46243 19.7462 7.46243 19.7462 7.71685 20.1181H7.88646V20.3726H8.05608C8.05608 20.5422 8.05608 20.5422 8.16142 20.7258L8.29991 20.9345C8.43705 21.1446 8.43705 21.1446 8.56492 21.3056H8.73454C8.73454 21.4752 8.73454 21.4752 8.84055 21.629L8.98896 21.8145L9.15427 22.0219L9.32819 22.2386C9.68351 22.6944 10.0465 23.1367 10.436 23.5639C10.6945 23.844 10.9474 24.1267 11.1939 24.4174C11.3317 24.5827 11.3318 24.5828 11.4484 24.6984H11.618C11.618 24.868 11.618 24.868 11.773 25.0456L11.9784 25.2497C12.171 25.4436 12.3372 25.6069 12.576 25.7401L12.7205 25.8011V25.9707H12.8901V26.1403H13.0597L13.0597 26.31C13.4026 26.5472 13.4026 26.5472 13.6852 26.8613C13.8932 27.0822 14.0696 27.2946 14.3616 27.3994L14.5014 27.4126V27.5823H14.671L14.6711 27.7519C15.0482 27.9961 15.0483 27.9961 15.3813 28.3033L15.5297 28.4348L15.6748 28.5604C15.8305 28.6973 15.9292 28.7656 16.1295 28.8253L16.2824 28.8546V29.0242L16.7064 29.1939V29.3635H16.9608V29.5331L17.1251 29.6392C17.2701 29.722 17.414 29.807 17.5532 29.8993C18.175 30.3216 18.8119 30.708 19.4732 31.0652C19.6836 31.1781 19.891 31.2896 20.0911 31.4197C20.4208 31.6415 20.7597 31.8138 21.122 31.9754L21.3072 32.0565C21.5852 32.1784 21.8592 32.3043 22.1532 32.3823L22.3037 32.417C22.2482 32.6833 22.2482 32.6833 22.0387 32.7623C21.2939 33.0355 20.6099 33.3959 19.9144 33.7745L19.7595 33.859C19.5753 33.9581 19.3918 34.0579 19.2096 34.1605L18.9962 34.2831C18.8142 34.3877 18.6323 34.4926 18.4508 34.598L18.2541 34.7125C17.9292 34.9002 17.6151 35.0839 17.3189 35.3152C17.139 35.4704 17.139 35.4704 16.9592 35.5779L16.5368 35.8098V35.9795L16.1128 36.1491V36.3188C15.8583 36.3188 15.8583 36.3188 15.6039 36.5255C15.3309 36.7715 15.0486 37.0016 14.7611 37.2306C14.6146 37.3466 14.4704 37.4657 14.3318 37.5911V37.7607H14.0774V37.9303C13.9078 37.9303 13.9078 37.9304 13.6852 38.1477C13.4763 38.3654 13.2581 38.5626 13.0278 38.7574C12.851 38.9045 12.851 38.9045 12.7205 39.033V39.2027H12.4661C12.1972 39.606 11.874 39.9621 11.5338 40.307C11.2563 40.5808 10.9837 40.8541 10.7275 41.1482C10.6289 41.2634 10.53 41.3782 10.4307 41.4928L10.2458 41.6933L10.0596 41.8957L10.0526 41.9033C9.88354 42.0847 9.76714 42.2097 9.6906 42.4484L9.66742 42.5955H9.4978V42.7651H9.32819L9.22416 42.8807L9.10557 43.0461L8.9714 43.2319L8.81934 43.4437L8.63813 43.6845L8.45361 43.9314L8.43599 43.9549C8.28295 44.1587 8.15635 44.3274 8.07894 44.5742L8.05608 44.716H7.88646C7.80264 44.8335 7.71978 44.9518 7.64256 45.0737C7.57944 45.1738 7.51479 45.273 7.4486 45.3711L7.44771 45.3724C7.08961 45.8949 6.73299 46.4151 6.43414 46.9743C6.31046 47.2107 6.18478 47.4389 6.04157 47.6641C5.6086 48.3343 5.26335 49.028 4.92469 49.7497L4.91574 49.7688C4.74467 50.134 4.57388 50.4987 4.38949 50.8575C3.6819 52.2275 3.19787 53.662 2.71885 55.1257C2.63978 55.3674 2.56075 55.6089 2.47665 55.8489C1.80516 57.7124 1.43531 59.7183 1.15777 61.6768L1.12309 61.9292C1.06393 62.3451 1.01866 62.7536 1.01281 63.1742L1.01435 63.4913C1.01505 63.6792 1.01589 63.8671 1.01708 64.055C2.11493 64.0568 3.21279 64.0582 4.31065 64.0591L4.47766 64.0593C4.98374 64.0596 5.48983 64.06 5.99592 64.0608C6.5441 64.0618 7.09229 64.0626 7.64047 64.0629C7.85101 64.063 8.06154 64.0631 8.27207 64.0633C9.58836 64.0662 10.8976 64.0523 12.2116 63.9702C12.2964 63.7157 12.2964 63.7157 12.3125 63.4694L12.3203 63.17C12.3252 63.0018 12.33 62.8335 12.3344 62.6652C12.3619 61.5869 12.4126 60.522 12.551 59.4518L12.5827 59.2149C12.6576 58.6493 12.7354 58.0842 12.8209 57.52L12.853 57.3118C12.921 56.8616 13.0095 56.4334 13.1445 55.9971C13.2451 55.7131 13.3177 55.464 13.3618 55.1648L13.3989 54.8944C13.4837 54.8096 13.4837 54.8096 13.5473 54.5127C13.62 54.173 13.7083 53.8397 13.8043 53.506L13.8601 53.3146C13.9598 52.9666 14.0656 52.6324 14.2059 52.2981C14.2874 52.1119 14.3631 51.923 14.4315 51.7315C14.6052 51.2217 14.7923 50.7278 15.0209 50.2399L15.0361 50.2079C15.1435 49.9819 15.25 49.7577 15.3415 49.5246C15.4461 49.2331 15.558 48.9565 15.6993 48.6813C15.7905 48.5102 15.8589 48.3611 15.9107 48.1737L15.9431 48.024H16.1128C16.1697 47.9111 16.2261 47.7979 16.2824 47.6847C16.542 47.1357 16.8141 46.6179 17.157 46.1155C17.3137 45.8933 17.4507 45.71 17.5316 45.4502L17.5545 45.3097H17.7241L17.8646 45.1175L18.0209 44.8644C18.1622 44.6381 18.2987 44.4136 18.4211 44.1766L18.4874 44.0374H18.657L18.9962 43.3588H19.1658V43.1892H19.3354C19.399 42.9411 19.399 42.9411 19.5339 42.8105C19.7361 42.6241 19.9071 42.4637 20.0457 42.2244L20.0987 42.0865C20.2683 42.0865 20.2683 42.0865 20.3902 41.9686L20.5227 41.8109C20.6637 41.646 20.7759 41.4952 20.8779 41.3033L20.9468 41.1535H21.1164V40.9839H21.286V40.8142H21.5404V40.6446H21.71V40.475H21.8797L22.2189 40.1357C22.3895 40.0241 22.5593 39.9112 22.7277 39.7964V39.6268C22.9918 39.4996 23.2469 39.3654 23.491 39.2027V39.033C23.7105 39.033 23.7105 39.033 24.1694 38.6937V38.5241C24.4521 38.5241 24.4521 38.5241 24.8055 38.259C25.458 37.7696 26.1966 37.415 26.9331 37.0707L27.1854 36.9549C27.9236 36.6158 28.6619 36.322 29.4381 36.0829C29.6024 36.033 29.7624 35.9812 29.9219 35.9175C30.3477 35.7442 30.7729 35.6465 31.2242 35.5604L31.5159 35.5077C34.1781 35.0234 37.3225 34.7918 39.9436 35.6402L40.0284 35.8098H39.8588V35.9795C39.6892 35.9795 39.6892 35.9795 39.5296 36.0916C39.4169 36.1809 39.3028 36.2685 39.1869 36.3536C39.0703 36.4387 38.954 36.5242 38.8378 36.6098L38.6503 36.7482L38.4588 36.8875L38.2779 37.0215C38.1122 37.1431 38.1122 37.1431 37.993 37.2518V37.4214C37.7785 37.4214 37.7785 37.4214 37.3994 37.7607V37.9303H37.145C36.9787 38.0966 36.8048 38.2452 36.6254 38.397C36.4393 38.5533 36.4393 38.5533 36.2969 38.6937V38.8634H36.1273V39.033H35.9577V39.2027C35.7032 39.2027 35.7032 39.2027 35.5482 39.3254L35.3734 39.4996L35.1745 39.6961L34.9608 39.9114C34.8116 40.0601 34.6625 40.2089 34.5134 40.3578C34.2787 40.5942 34.0439 40.8304 33.8077 41.0653C33.6537 41.2182 33.5001 41.3714 33.3468 41.5249L33.1269 41.7456L32.9127 41.9582L32.7146 42.1588C32.5213 42.3528 32.4033 42.4937 32.291 42.7447L32.2261 42.9347H32.0565C31.8476 43.1646 31.6711 43.3737 31.5212 43.6451L31.4629 43.7829H31.2933V44.0374H31.1236C30.9702 44.2093 30.8785 44.3464 30.8109 44.5675L30.7844 44.716H30.6148L30.4521 44.9058L30.2597 45.1666C30.0069 45.509 29.7669 45.8567 29.5388 46.2162L29.5253 46.2379C29.3975 46.4437 29.2699 46.6489 29.135 46.8501C28.6188 47.6068 28.1328 48.3901 27.7261 49.2114C27.5985 49.4761 27.4685 49.7354 27.3249 49.9917C25.5191 53.211 24.5541 57.0483 24.0744 60.6807C24.0374 60.9669 24.0002 61.253 23.961 61.5389C23.9359 61.7201 23.9109 61.9013 23.8861 62.0825L23.8514 62.3374C23.7795 62.8561 23.7149 63.3611 23.7454 63.8853C23.915 64.055 23.915 64.055 24.1094 64.0657L24.3391 64.055C25.6672 64.0512 26.9953 64.0441 28.3234 64.0361C28.959 64.0323 29.5946 64.0286 30.2303 64.0263C30.7902 64.0243 31.3502 64.0219 31.9101 64.0182L31.9927 64.0176C32.2605 64.0157 32.5283 64.0138 32.7961 64.0131C33.0784 64.0126 33.3607 64.0116 33.643 64.0095L33.9543 64.0068L34.2508 64.0072L34.5201 64.004C34.7547 64.0028 34.7548 64.0028 34.94 63.9702C35.1096 63.7157 35.1096 63.7157 35.1315 63.5263L35.1326 63.3017L35.1352 63.0449C35.1356 62.855 35.1367 62.6652 35.1386 62.4753L35.1416 62.1724C35.167 58.778 35.3692 55.4169 36.2442 52.1205L36.2969 51.9257C36.5099 51.1319 36.7567 50.3584 37.0519 49.5913C37.1669 49.2936 37.2758 48.9959 37.3729 48.6919C37.4338 48.4921 37.5062 48.3181 37.5981 48.1293C37.671 47.9866 37.7438 47.8438 37.8146 47.7L37.8322 47.664C38.1069 47.1018 38.38 46.5429 38.7086 46.0095C38.8291 45.8216 38.9194 45.6712 38.9819 45.4568L39.0107 45.3097H39.1803L39.3208 45.1175L39.4772 44.8644C39.6184 44.6381 39.7549 44.4136 39.8773 44.1766L39.9436 44.0374H40.1132C40.2828 43.783 40.2828 43.783 40.3782 43.5974L40.4524 43.4437H40.6221C40.7746 43.2148 40.933 43.0465 41.1339 42.861L41.2687 42.7386C41.6043 42.4334 41.94 42.1345 42.3099 41.8708L42.4878 41.7473C43.6503 40.8956 44.8487 40.46 46.2628 40.246C48.154 40.0176 50.255 40.4366 51.7848 41.6094C51.9489 41.7483 52.0515 41.8262 52.2585 41.8884L52.4103 41.9169V42.0865C52.6647 42.2562 52.6647 42.2562 52.8502 42.3516L53.0039 42.4258V42.5955C53.1791 42.6709 53.1791 42.6709 53.2991 42.8131L53.4438 42.9825C53.552 43.1076 53.6598 43.2331 53.7672 43.3588L53.9321 43.5547L54.0905 43.7405C54.2352 43.9128 54.2353 43.9129 54.3608 44.0374H54.5304C54.5304 44.2296 54.5304 44.2296 54.7935 44.6139L54.9015 44.769C55.0273 44.9554 55.1551 45.1321 55.2937 45.3097H55.4633C55.4633 45.5642 55.4633 45.5642 55.541 45.7097C55.7844 46.0726 56.003 46.4429 56.209 46.8282L56.3167 47.0326C56.5522 47.4789 56.7747 47.9178 56.9421 48.3951C56.9831 48.5268 57.0271 48.6578 57.0747 48.7873C57.201 48.9964 57.3193 49.1838 57.4006 49.4146C57.4745 49.6868 57.5463 49.959 57.6441 50.2237C58.1886 51.5924 58.5036 53.079 58.745 54.5294L58.7761 54.7195C59.175 57.1522 59.3078 59.5452 59.3365 62.009L59.3399 62.3312C59.3422 62.5329 59.3444 62.7347 59.3466 62.9364L59.3484 63.223L59.3511 63.4841C59.352 63.6179 59.3553 63.7518 59.3644 63.8853C59.4493 63.9702 59.4493 63.9702 59.6343 63.9808L59.8839 63.9809L60.1693 63.9817L60.4852 63.9811C60.833 63.9816 61.1809 63.982 61.5288 63.9817C61.841 63.9814 62.1533 63.9815 62.4655 63.9816C62.9876 63.9818 63.5097 63.9818 64.0318 63.9814C64.6409 63.9809 65.2501 63.9808 65.8592 63.9812C66.3854 63.9816 66.9116 63.9818 67.4377 63.9817C67.751 63.9815 68.0642 63.9813 68.3775 63.9816C68.6775 63.9818 68.9774 63.982 69.2774 63.9816L69.6079 63.9811L69.9238 63.9817L70.2092 63.9809C70.3541 63.9809 70.4991 63.9785 70.6438 63.9702C70.7286 63.8853 70.7286 63.8853 70.7399 63.719L70.7392 63.5143C70.7396 63.3835 70.7364 63.2525 70.7286 63.122C70.6273 62.7109 70.6273 62.7108 70.6067 62.2844C70.5814 61.7763 70.5168 61.283 70.4365 60.7806L70.3894 60.4925C70.1899 59.2487 69.955 58.0172 69.6604 56.7926L69.6155 56.6067C69.5729 56.4282 69.5301 56.2498 69.4863 56.0716L69.4452 55.9053C69.3678 55.5908 69.2813 55.3051 69.1568 55.0057C69.0895 54.8537 69.0238 54.7006 68.9676 54.5441L68.9202 54.3924L68.8637 54.2159C68.3496 52.6022 67.6784 51.0595 66.9123 49.5507H66.7427V49.2114H66.5731C66.5731 48.9224 66.5731 48.9224 66.2878 48.4279L66.149 48.1936C66.0615 48.0441 65.9736 47.8948 65.8848 47.7461L65.7939 47.5946C65.6914 47.4234 65.585 47.2544 65.4706 47.0909H65.3009C65.3009 46.8275 65.2552 46.7217 65.1313 46.4972H64.9617C64.9231 46.3045 64.8734 46.1511 64.7818 45.9763L64.6701 45.7974C64.5592 45.6159 64.5592 45.6158 64.4529 45.4794H64.2833C64.2833 45.3097 64.2833 45.3097 64.1965 45.1633L64.0819 45.0022C63.9686 44.8399 63.9686 44.8399 63.8592 44.716H63.6896V44.4615H63.52C63.52 44.247 63.52 44.247 63.1808 43.8678H63.0112C63.0112 43.6981 63.0112 43.6981 62.8502 43.4775L62.6401 43.221C62.514 43.0652 62.3841 42.9122 62.2479 42.7651H62.0783V42.5955H61.9087C61.9087 42.3118 61.9086 42.3118 61.5941 41.9932L61.4568 41.8583C61.3618 41.7631 61.2667 41.6681 61.1716 41.5731C61.0206 41.4243 60.8697 41.2754 60.7199 41.1253C60.6223 41.0273 60.5246 40.9296 60.4266 40.832L60.2854 40.692L60.2618 40.6683C60.0509 40.4569 59.8502 40.2557 59.5878 40.1062L59.4493 40.0509V39.8812L59.4313 39.8608C59.2465 39.6501 59.1005 39.4836 58.8291 39.3882L58.686 39.3723V39.2027H58.5164V39.033H58.3468V38.8634H58.1771V38.6937C57.9474 38.4848 57.7382 38.3083 57.4669 38.1583L57.3291 38.1V37.9303H57.0747V37.7607C56.8202 37.5911 56.8202 37.5911 56.6347 37.4956L56.481 37.4214V37.2518H56.2266V37.0821C56.0447 36.9205 55.8781 36.8237 55.6541 36.727L55.4633 36.658V36.4884C55.2522 36.2953 55.0627 36.1595 54.8008 36.0431L54.6152 35.9795V35.8098L54.3608 35.6402C56.5184 35.1406 58.7689 34.9734 60.9771 35.1879L61.2302 35.2161C62.9083 35.3722 64.5888 35.7948 66.1384 36.4566L66.4034 36.5732C67.2601 36.8738 68.0883 37.2864 68.8629 37.7607L69.1312 37.929C69.2308 37.9913 69.3304 38.0536 69.43 38.1159C69.6748 38.2709 69.8913 38.4164 70.1684 38.5019L70.3046 38.5241V38.6937C70.4742 38.7786 70.4742 38.7786 70.6544 38.8263L70.8134 38.8634V39.033C71.0554 39.2451 71.3311 39.4162 71.6138 39.5684L71.7463 39.6268V39.7964C71.9395 39.8846 71.9395 39.8846 72.1597 40.088C72.3139 40.2187 72.448 40.3182 72.6262 40.4166L72.764 40.475V40.6446H72.9336V40.8142H73.188V40.9839H73.3576V41.2383C73.5978 41.3985 73.7321 41.5384 73.9142 41.7579C74.0682 41.9441 74.0682 41.9441 74.2057 42.0865H74.3753C74.3753 42.2562 74.3753 42.2562 74.4863 42.3718C74.644 42.5245 74.7623 42.6872 74.8895 42.8658C75.0197 43.0497 75.0197 43.0497 75.1386 43.1892H75.3082C75.3082 43.3588 75.3082 43.3588 75.4136 43.5238L75.552 43.7087C75.6892 43.8949 75.6892 43.8949 75.817 44.0374H75.9867C75.9867 44.2296 75.9867 44.2296 76.2497 44.6139L76.3577 44.769C76.4835 44.9554 76.6113 45.1321 76.7499 45.3097H76.9195C76.9195 45.5642 76.9195 45.5642 77.052 45.7762C77.4353 46.3261 77.7988 46.8816 78.0962 47.4832C78.2125 47.7233 78.329 47.9628 78.4536 48.1987L78.5537 48.3851C78.622 48.5122 78.6903 48.6392 78.7588 48.7661C78.9475 49.1116 79.1252 49.4514 79.262 49.8211C79.3301 50.0111 79.4006 50.1938 79.4816 50.379C79.8874 51.2452 80.2416 52.1016 80.5036 53.0217C80.5741 53.2703 80.6446 53.5177 80.7253 53.7632C80.8424 54.0988 80.9419 54.4326 81.0274 54.7778C81.1227 55.1723 81.2268 55.5634 81.3348 55.9547C81.4631 56.4124 81.5514 56.8674 81.6265 57.3368L81.6687 57.6087C81.8408 58.6977 81.9875 59.7857 82.0611 60.886L82.0775 61.1433C82.1048 61.5696 82.1315 61.996 82.1539 62.4227C82.1623 62.5859 82.1712 62.7491 82.1806 62.9123L82.1938 63.1418C82.2049 63.3956 82.2256 63.633 82.2624 63.8853C82.5168 64.055 82.5168 64.055 82.7174 64.0748L82.959 64.0727L83.2364 64.0716L83.5408 64.0678C83.8777 64.0657 84.2146 64.0634 84.5515 64.0598C84.8536 64.0565 85.1557 64.0539 85.4577 64.0516C85.9631 64.0477 86.4685 64.0433 86.9739 64.0382C87.5632 64.0322 88.1525 64.0267 88.7418 64.0221C89.3734 64.0172 90.0049 64.0119 90.6365 64.0062C90.8176 64.0046 90.9988 64.003 91.1799 64.0015C91.4701 63.9991 91.7603 63.9966 92.0504 63.9936L92.3701 63.9903L92.6755 63.988L92.9515 63.9847C93.1458 63.9829 93.3157 64.0266 93.457 63.8853C93.5566 61.3071 92.7831 58.2378 91.9622 55.8115C91.861 55.5223 91.761 55.2344 91.671 54.9414C91.5481 54.5291 91.4242 54.1218 91.2626 53.7228C91.1587 53.4735 91.0611 53.2243 90.9687 52.9704C90.7591 52.3899 90.5383 51.8281 90.2555 51.2789C90.1104 51.0037 89.9817 50.7435 89.8778 50.45L89.8102 50.2293H89.6406C89.5842 49.857 89.4551 49.5523 89.3014 49.2114H89.1318V48.8722H88.9622C88.9216 48.6562 88.8575 48.4935 88.7578 48.2957L88.6176 48.0452C88.535 47.8965 88.4521 47.748 88.3685 47.5999H88.1989C88.1989 47.3454 88.1989 47.3454 88.1247 47.1721L88.0293 46.9902C87.9732 46.8822 87.9168 46.7743 87.8597 46.6668H87.6901C87.6901 46.4972 87.6901 46.4972 87.6092 46.3531C87.4219 46.0658 87.2393 45.7776 87.0699 45.4794L86.9268 45.2249H86.7572C86.7572 45.0054 86.7572 45.0054 86.4179 44.5463H86.2483C86.2483 44.2919 86.2483 44.2919 86.0787 44.0374H85.9091C85.9091 43.8678 85.9091 43.8678 85.8087 43.7233C85.7236 43.6157 85.6391 43.5076 85.5569 43.3978C85.4847 43.3005 85.4121 43.2035 85.3391 43.1067L85.2253 42.956C85.0901 42.7737 84.9531 42.5997 84.8066 42.4258H84.637C84.637 42.1714 84.637 42.1714 84.4892 42.0136C84.2839 41.8189 84.1203 41.611 83.9479 41.3868C83.8426 41.2492 83.7339 41.1139 83.6193 40.9839H83.4497C83.4497 40.8142 83.4497 40.8142 83.3048 40.6487L83.1025 40.4475L82.8799 40.2253L82.644 39.9925L82.6392 39.9877C82.233 39.5818 81.828 39.177 81.3944 38.8001C81.2356 38.6637 81.0782 38.527 80.9247 38.3845L80.7796 38.2464C80.6872 38.1588 80.5949 38.0712 80.5026 37.9834C80.282 37.77 80.0877 37.5407 79.7873 37.4507L79.6334 37.4214V37.2518H79.4638V37.0821C79.3409 36.9754 79.2171 36.8695 79.0884 36.7699L78.9337 36.6527C78.6934 36.4645 78.4719 36.266 78.1745 36.1798L78.022 36.1491V35.9795C77.7676 35.8098 77.7676 35.8098 77.5397 35.7144L77.3436 35.6402V35.4706C77.174 35.3858 77.1739 35.3857 76.9513 35.2956L76.7499 35.2161V35.0465L76.5422 34.903L76.2676 34.7443C76.0051 34.5901 75.7826 34.4652 75.4868 34.3921L75.3082 34.3679V34.1983C74.8696 33.8786 74.8696 33.8786 73.6068 33.2681L73.3682 33.1539C72.9834 32.9696 72.6037 32.7898 72.2015 32.6466L72.0007 32.5867V32.417C72.3302 32.3716 72.6063 32.2597 72.906 32.1178L73.0873 32.03C73.8041 31.6879 74.5148 31.3337 75.2234 30.9751V30.8054C75.4822 30.7277 75.7142 30.6459 75.9502 30.5132L76.4077 30.2127C76.5404 30.1248 76.6731 30.0369 76.8069 29.9508L76.9517 29.8582L77.2323 29.6763C77.493 29.5077 77.4931 29.5076 77.6828 29.3635V29.1939C77.9921 29.1939 77.9921 29.1939 78.3613 28.8546V28.6849H78.6157C78.7734 28.5209 78.7734 28.5209 78.9135 28.4131L79.0616 28.3006C79.1708 28.2166 79.2802 28.1326 79.3896 28.0488C79.5891 27.8976 79.7812 27.7442 79.9726 27.5823V27.4126L80.3966 27.243V27.0734H80.5663V26.9037C80.7553 26.9037 80.7553 26.9037 81.1278 26.5332L81.2881 26.3709C81.4008 26.2581 81.5135 26.1452 81.6262 26.0323C81.8031 25.8538 81.98 25.6753 82.1576 25.4975C82.2732 25.3818 82.3888 25.2661 82.5042 25.1503L82.6715 24.982C82.9911 24.6618 83.3023 24.3379 83.5999 23.9971C83.7309 23.845 83.8617 23.6936 83.9976 23.5459L84.1142 23.4221L84.3296 23.1928C84.5295 22.9814 84.695 22.8265 84.7887 22.5501L84.8066 22.4082H84.9762L85.0872 22.2727L85.2306 22.069L85.435 21.8095L85.66 21.5229C85.8652 21.2656 86.0537 21.0219 86.1897 20.7195L86.2483 20.5422H86.4179V20.2877H86.5876C86.7752 19.9283 86.9552 19.5909 87.2183 19.2805C87.5624 18.8915 87.8578 18.3837 88.0015 17.8843L88.0293 17.7431H88.1989L88.3228 17.5198L88.4851 17.2236C88.6444 16.9344 88.7853 16.6606 88.8966 16.3496L88.9622 16.1315H89.1318L89.2216 15.9208L89.3385 15.6438L89.3408 15.6384C89.443 15.3972 89.5421 15.1636 89.6118 14.9109L89.6406 14.7744H89.8102C89.8287 14.5817 89.8287 14.5817 89.8951 14.3503C90.1224 14.0187 90.3037 13.7067 90.4537 13.3356C90.503 13.2103 90.5527 13.0851 90.6029 12.96L90.6805 12.7669C90.7685 12.5463 90.8585 12.3275 90.9515 12.1089C91.1161 11.7255 91.2682 11.3479 91.3845 10.9469C91.4441 10.7353 91.5068 10.5323 91.5882 10.328C91.7495 9.94566 91.8804 9.57491 91.9781 9.17099C92.0281 8.94947 92.0779 8.73088 92.1527 8.51628C92.3674 7.91492 92.504 7.29734 92.6395 6.67449L92.6831 6.47264C92.9095 5.42845 93.1099 4.38287 93.2646 3.32551L93.2926 3.13285C93.3202 2.94907 93.3474 2.76531 93.373 2.58125L93.3963 2.41055C93.4345 2.13505 93.4638 1.8773 93.4402 1.59972L93.4157 1.3959C93.4014 1.27508 93.387 1.15429 93.3721 1.03354C92.0019 1.03166 90.6317 1.03016 89.2614 1.02928C88.5955 1.02885 87.9296 1.02838 87.2636 1.02744C86.6785 1.02659 86.0935 1.02589 85.5084 1.02562L85.4213 1.0256C85.1415 1.02551 84.8618 1.02542 84.5821 1.02494C84.2863 1.02435 83.9905 1.02385 83.6948 1.02388L83.3689 1.02392L83.0574 1.02299L82.776 1.02334C82.633 1.02321 82.4899 1.02539 82.3472 1.03354C82.2624 1.11836 82.2624 1.11836 82.2399 1.34889C82.2312 1.50766 82.2225 1.66644 82.2134 1.8252L82.2033 2.00018C82.1862 2.3121 82.1678 2.62393 82.1488 2.93574L82.1372 3.1239C82.0601 4.3783 81.9315 5.61646 81.749 6.85995L81.7218 7.04518C81.6219 7.74109 81.508 8.42318 81.3226 9.10207C81.2414 9.38906 81.1625 9.67355 81.0978 9.96471C80.9605 10.634 80.7533 11.2718 80.5324 11.9172L80.5302 11.9236C80.4308 12.2134 80.3317 12.5025 80.2439 12.7961C80.1567 13.0952 80.0703 13.386 79.9517 13.6744L79.9477 13.6827C79.8086 13.971 79.6699 14.2585 79.5515 14.5561C78.9988 16.0058 78.2272 17.5248 77.3621 18.817L77.2164 19.0207L77.0617 19.2394C76.8418 19.5489 76.6264 19.8424 76.4743 20.1923L76.4107 20.3726H76.2411L76.1033 20.5687C75.7289 21.1567 75.321 21.7169 74.8524 22.2333C74.688 22.4085 74.5558 22.5579 74.4409 22.7691L74.3753 22.9172H74.2057C74.0456 23.1574 73.9057 23.2917 73.6863 23.4738C73.5001 23.6279 73.5001 23.6279 73.3576 23.7654V23.935H73.188C73.0502 24.0516 73.0502 24.0517 72.9336 24.1895V24.3591H72.764V24.5288H72.5944V24.6984C72.34 24.7832 72.34 24.7832 72.1481 24.9154L71.9424 25.0748C71.7347 25.2335 71.7346 25.2336 71.5767 25.377V25.5466H71.4071C71.1666 25.7886 70.9164 25.9612 70.6279 26.1456C70.4605 26.2523 70.2952 26.3626 70.135 26.4796V26.6493C69.8805 26.6493 69.8805 26.6493 69.7205 26.7622C69.5325 26.9106 69.3441 27.0186 69.1332 27.1317C68.9091 27.2514 68.6845 27.3701 68.4627 27.494C67.8628 27.8314 67.2688 28.132 66.6208 28.3669C66.3386 28.4674 66.0568 28.5618 65.7879 28.6949C65.2909 28.9725 64.7602 29.1043 64.2098 29.2359L64.0288 29.2787C62.1699 29.7277 60.3136 29.93 58.4013 29.8791L58.1771 29.8724C57.4483 29.8551 56.7356 29.7707 56.0137 29.6727L55.6965 29.6286L55.387 29.5871L55.0963 29.5444C54.7615 29.4966 54.5762 29.4627 54.3608 29.1939H54.6152V29.0242C54.9245 29.0242 54.9245 29.0242 55.2937 28.6849V28.5153C55.5899 28.4165 55.8058 28.2754 56.057 28.0912V27.9216H56.2266V27.7519C56.481 27.7519 56.481 27.7519 56.6357 27.6466L56.7937 27.5081C56.9537 27.3709 56.9537 27.3709 57.0747 27.243V27.0734C57.2443 27.0734 57.2443 27.0734 57.4649 26.9123L57.7213 26.7023C57.8771 26.5761 58.0301 26.4462 58.1771 26.31C58.1771 26.2523 58.2957 26.3189 58.2957 26.2629C58.3533 26.2629 58.2908 26.1403 58.3468 26.1403C58.3468 26.0827 58.4139 26.1447 58.4608 26.0978C58.5076 26.051 58.4604 25.9707 58.5164 25.9707C58.5164 25.913 58.5588 25.8994 58.5588 25.8435C58.7602 25.8093 58.837 25.732 58.9947 25.5989C59.2584 25.3135 59.5285 25.0499 59.8256 24.7991C60.0001 24.6544 60.0002 24.6543 60.1277 24.5288V24.3591H60.2973V24.1895H60.4669V24.0198C60.7214 23.935 60.7214 23.935 60.8522 23.8021C61.0505 23.5615 61.2484 23.3232 61.4687 23.1024C61.7926 22.79 62.0991 22.466 62.3956 22.1277L62.5341 21.9682C62.7687 21.7023 62.9763 21.466 63.1258 21.1422L63.1808 20.9663H63.3504C63.5434 20.7551 63.6792 20.5656 63.7956 20.3036L63.8592 20.1181H64.0288L64.1451 19.9352C64.2895 19.6832 64.4534 19.4596 64.6278 19.2275C64.8037 18.9943 64.9501 18.7875 65.0674 18.5198L65.1313 18.3369H65.3009C65.475 17.9345 65.4751 17.9344 65.725 17.5735C66.0283 17.1474 66.2876 16.7174 66.5201 16.2482C66.6755 15.929 66.8317 15.6113 67.0011 15.2992C67.4733 14.433 67.8501 13.5517 68.195 12.6274L68.2094 12.5881C68.2847 12.3834 68.3599 12.1787 68.4388 11.9754C68.6036 11.5965 68.7473 11.227 68.8629 10.8303C68.9166 10.6457 68.9732 10.4619 69.0325 10.279C69.2062 9.89558 69.3374 9.52952 69.4363 9.12035L69.4853 8.9099C69.5405 8.67754 69.5953 8.44512 69.6492 8.21246L69.7056 7.9676C69.9926 6.7315 70.2496 5.504 70.4116 4.24445C70.4426 3.99392 70.4748 3.74397 70.5115 3.4942L70.5501 3.24318C70.5742 3.08447 70.5984 2.92576 70.6226 2.76706C70.7088 2.2185 70.7689 1.67457 70.7286 1.11836C70.6438 1.03354 70.6438 1.03354 70.4603 1.02263L70.213 1.0222L69.9301 1.02111L69.617 1.02122C69.2722 1.02031 68.9274 1.01949 68.5825 1.01939C68.3353 1.01935 68.088 1.01919 67.8407 1.01889C67.2606 1.01819 66.6806 1.01775 66.1005 1.01781C65.4966 1.01787 64.8927 1.01742 64.2888 1.01609C63.7671 1.01493 63.2455 1.01419 62.7238 1.01411L62.6171 1.01413C62.342 1.01417 62.0669 1.01421 61.7918 1.01355C61.4945 1.01269 61.1972 1.01204 60.8998 1.01245L60.5718 1.01294L60.2593 1.0115L59.9757 1.01257C59.7282 1.01243 59.7282 1.01243 59.5341 1.03354C59.3644 1.20318 59.3644 1.20318 59.342 1.35838L59.3401 1.54936L59.3366 1.76739L59.3353 2.00533L59.3281 2.51075C59.3231 2.9668 59.3164 3.42277 59.3081 3.87877L59.3028 4.15268C59.2823 5.23453 59.2332 6.30989 59.1351 7.38786L59.11 7.64952C59.0041 8.75572 58.8356 9.84789 58.6347 10.9404L58.6012 11.1219C58.4957 11.6991 58.3987 12.2758 58.2103 12.8328C58.1418 13.0232 58.0821 13.2036 58.0327 13.4004C57.6674 15.0786 56.9595 16.6852 56.1524 18.1937L56.1308 18.2333C55.9754 18.5183 55.8224 18.7988 55.6959 19.0986L55.6329 19.2699H55.4633C55.3444 19.5733 55.2415 19.8205 55.0446 20.081C54.8031 20.3664 54.5985 20.6672 54.4244 20.9981L54.3608 21.1359H54.1912C54.0161 21.333 53.8714 21.5241 53.746 21.7562L53.6824 21.8993H53.5127C53.3256 22.1802 53.1309 22.333 52.8661 22.5408C52.7109 22.6622 52.5581 22.7869 52.4103 22.9172V23.0868C52.1558 23.0868 52.1558 23.0868 52.0502 23.1905L51.9014 23.3413C50.459 24.2908 48.8624 24.9262 47.1045 24.8783L46.8978 24.868C45.479 24.817 44.181 24.3797 42.9914 23.6116L42.9804 23.6042C42.7785 23.4666 42.6122 23.3533 42.3768 23.282L42.2334 23.2564L42.2334 23.0868C41.979 22.9172 41.979 22.9172 41.7934 22.8217L41.6397 22.7475V22.5779C40.9766 22.0724 40.9766 22.0724 40.4683 21.3957C40.3539 21.2494 40.2365 21.1052 40.1132 20.9663H39.9436C39.9436 20.7967 39.9436 20.7967 39.8101 20.5999C39.3058 19.9304 38.8709 19.2555 38.4747 18.5174C38.3995 18.3774 38.3242 18.2375 38.2475 18.0983C37.9686 17.5937 37.6749 17.0971 37.5001 16.545C37.456 16.3801 37.456 16.38 37.3994 16.2164C37.0346 15.5222 37.0346 15.5222 36.7875 14.7747L36.7315 14.6048C36.4118 13.6397 36.1188 12.6753 35.9154 11.6781L35.8728 11.4664C35.3032 8.74166 35.1575 5.99791 35.1392 3.2209L35.1373 2.89187C35.1358 2.68548 35.1342 2.4791 35.1328 2.27272L35.1331 1.98241L35.1312 1.716C35.1308 1.39305 35.1256 1.31207 34.94 1.03354L34.7474 1.00176L34.5022 1.0018L34.2211 1L33.9113 1.00196C33.5694 1.00098 33.2274 1.00019 32.8854 1.00146C32.5786 1.00263 32.2717 1.00286 31.9648 1.0027C31.4514 1.00243 30.9381 1.00294 30.4247 1.00443C29.8261 1.00624 29.2275 1.00728 28.6289 1.00677C28.0493 1.00626 27.4697 1.00629 26.8902 1.00723L26.8805 1.00725C26.6379 1.00765 26.3954 1.00805 26.1529 1.00796C25.8582 1.00775 25.5635 1.0078 25.2688 1.00893L24.9436 1.01025L24.6339 1.00961L24.3528 1.01143C24.0487 1.01209 23.9641 0.984418 23.7454 1.20318C23.7295 1.48945 23.7295 1.48945 23.7454 1.79693C23.7955 1.98957 23.8326 2.16325 23.8502 2.36246C23.8914 3.05664 23.9776 3.73945 24.0832 4.42609L24.1111 4.6066C24.2572 5.55853 24.4083 6.5074 24.6296 7.44526L24.6783 7.64952C24.8843 8.52923 25.0773 9.41693 25.3833 10.2683C25.489 10.5448 25.5936 10.8201 25.6875 11.1009C26.1624 12.5497 26.7263 13.9122 27.3921 15.2833H27.5617C27.5617 15.5671 27.6459 15.7269 27.7771 15.9738L27.8692 16.1422C28.0692 16.5128 28.2737 16.8748 28.5105 17.2236C28.7285 17.5372 28.9159 17.8612 29.0982 18.1967L29.1731 18.3369H29.3427C29.4223 18.5546 29.5052 18.7497 29.6289 18.9462L29.7667 19.1374L29.9241 19.3564C30.0214 19.4917 30.1185 19.6272 30.2138 19.764C30.2898 19.8737 30.366 19.9832 30.4424 20.0926L30.5565 20.2559C30.6844 20.4418 30.8142 20.6192 30.954 20.7967H31.1236V20.9663H31.2933C31.2933 21.1359 31.2933 21.1359 31.4327 21.3351L31.6166 21.5653C31.7985 21.7963 32.1619 22.1919 32.3351 22.3798C32.6077 22.6805 32.8759 22.9835 33.1378 23.2936C33.2796 23.4629 33.2796 23.4629 33.4134 23.5957L33.6679 23.6805V23.8502H33.8375V24.0198H34.0071V24.1895H34.1767V24.3591C34.3538 24.4371 34.3538 24.4371 34.4925 24.5846L34.6663 24.7647C34.7966 24.8979 34.9267 25.0313 35.0566 25.1649L35.254 25.37L35.4455 25.5651L35.4588 25.5789C35.6294 25.7552 35.741 25.8705 35.9791 25.9483L36.1273 25.9707V26.1403H36.2969V26.31H36.4665V26.4796C36.7428 26.7704 37.0373 27.0218 37.3994 27.1953L37.569 27.243V27.4126C37.6819 27.5076 37.7957 27.6017 37.9137 27.6904C38.0137 27.7641 38.1133 27.8382 38.2125 27.9128L38.3657 28.0286C38.6428 28.2376 38.9123 28.4538 39.1803 28.6743C39.4002 28.8561 39.6204 29.0371 39.8429 29.2157L40.0284 29.3635C38.4822 29.7665 36.8758 29.8933 35.2826 29.894L35.1043 29.8936C34.1908 29.8926 33.3027 29.8463 32.4012 29.698L32.2102 29.6657C31.8461 29.6069 31.494 29.5418 31.1382 29.4427L30.8692 29.3635C30.3639 29.2926 29.9362 29.1733 29.4593 28.9924C29.2579 28.9157 29.0565 28.8443 28.8514 28.7777C27.5047 28.3456 26.2269 27.6805 25.0228 26.9408C24.8399 26.8236 24.696 26.7392 24.4871 26.6787L24.3391 26.6493V26.4796C24.0147 26.2892 24.0147 26.2892 23.7136 26.0608C23.4923 25.8964 23.2805 25.7396 23.0371 25.6099L22.8973 25.5466V25.377L22.7609 25.255L22.5793 25.1225C22.399 24.9889 22.2256 24.8715 22.0267 24.7673L21.8797 24.6984V24.5288H21.71V24.3591H21.5404V24.1895H21.286V24.0198H21.1164V23.7654C20.8762 23.6052 20.7419 23.4653 20.5598 23.2458C20.4058 23.0596 20.4058 23.0596 20.2683 22.9172H20.0987V22.7475H19.9291C19.8443 22.4931 19.8443 22.4931 19.6935 22.2827L19.5104 22.0531C19.3278 21.8215 19.3278 21.8215 19.1658 21.6449H18.9962C18.9962 21.4253 18.9962 21.4253 18.657 20.9663H18.4874C18.4874 20.7967 18.4874 20.7967 18.4006 20.6502L18.2859 20.4892C18.1727 20.3268 18.1726 20.3268 18.0633 20.2029H17.8937V19.9485H17.7241C17.7241 19.7788 17.7241 19.7788 17.575 19.5469C17.3612 19.2354 17.1638 18.9157 16.9668 18.5934L16.7064 18.1672C16.1423 17.2676 15.6487 16.3313 15.2753 15.3364C15.2184 15.1761 15.1591 15.0167 15.0951 14.8592C14.9103 14.6745 14.8377 14.4999 14.7421 14.2597L14.6763 14.0906C14.5379 13.7438 14.4073 13.3957 14.2893 13.0414C14.2258 12.8478 14.1623 12.6544 14.0972 12.4614L14.032 12.2692L13.9025 11.8852C13.7777 11.5191 13.6568 11.1552 13.5649 10.7793C13.5385 10.6689 13.5114 10.5587 13.4837 10.4486C12.7908 8.20616 12.4339 5.82118 12.3644 3.47688L12.3586 3.27352C12.3498 2.96748 12.341 2.66146 12.3357 2.35533L12.3328 2.17607L12.3256 1.83801C12.3199 1.47777 12.3288 1.33663 12.1268 1.03354L11.934 1.002L11.6884 1.00237L11.407 1.00094L11.0969 1.00331C10.7545 1.00276 10.4121 1.0024 10.0697 1.00405C9.76255 1.00556 9.4554 1.00606 9.14824 1.00615C8.6345 1.00627 8.12076 1.00712 7.60702 1.00896C6.9415 1.01141 6.276 1.0129 5.61048 1.01328C5.03486 1.01361 4.45924 1.01443 3.88362 1.01559C3.69946 1.01597 3.51531 1.01632 3.33115 1.01656C3.03608 1.01694 2.74101 1.01749 2.44594 1.0186L2.12088 1.01988L1.81021 1.02016Z" fill="black"/>
<path d="M1.81021 1.02016L1.52949 1.02163C1.19763 1.02267 1.02833 0.954314 1.00283 1.32611L1.00118 1.60078C0.961712 4.48218 1.92141 7.80199 2.90669 10.4761C2.98243 10.6803 3.05659 10.8847 3.12765 11.0906C3.39092 11.8671 3.65222 12.6336 4.00918 13.3732C4.08951 13.5377 4.1694 13.7025 4.24737 13.8681C4.67518 14.7833 5.11504 15.6889 5.59468 16.5782C5.65193 16.6837 5.70914 16.7893 5.76628 16.8949C6.02144 17.3763 6.28276 17.8465 6.57725 18.3051C6.80676 18.6596 7.01898 19.0193 7.22093 19.3902L7.29281 19.5244H7.46243C7.46243 19.7462 7.46243 19.7462 7.71685 20.1181H7.88646V20.3726H8.05608C8.05608 20.5422 8.05608 20.5422 8.16142 20.7258L8.29991 20.9345C8.43705 21.1446 8.43705 21.1446 8.56492 21.3056H8.73454C8.73454 21.4752 8.73454 21.4752 8.84055 21.629L8.98896 21.8145L9.15427 22.0219L9.32819 22.2386C9.68351 22.6944 10.0465 23.1367 10.436 23.5639C10.6945 23.844 10.9474 24.1267 11.1939 24.4174C11.3317 24.5827 11.3318 24.5828 11.4484 24.6984H11.618C11.618 24.868 11.618 24.868 11.773 25.0456L11.9784 25.2497C12.171 25.4436 12.3372 25.6069 12.576 25.7401L12.7205 25.8011V25.9707H12.8901V26.1403H13.0597L13.0597 26.31C13.4026 26.5472 13.4026 26.5472 13.6852 26.8613C13.8932 27.0822 14.0696 27.2946 14.3616 27.3994L14.5014 27.4126V27.5823H14.671L14.6711 27.7519C15.0482 27.9961 15.0483 27.9961 15.3813 28.3033L15.5297 28.4348L15.6748 28.5604C15.8305 28.6973 15.9292 28.7656 16.1295 28.8253L16.2824 28.8546V29.0242L16.7064 29.1939V29.3635H16.9608V29.5331L17.1251 29.6392C17.2701 29.722 17.414 29.807 17.5532 29.8993C18.175 30.3216 18.8119 30.708 19.4732 31.0652C19.6836 31.1781 19.891 31.2896 20.0911 31.4197C20.4208 31.6415 20.7597 31.8138 21.122 31.9754L21.3072 32.0565C21.5852 32.1784 21.8592 32.3043 22.1532 32.3823L22.3037 32.417C22.2482 32.6833 22.2482 32.6833 22.0387 32.7623C21.2939 33.0355 20.6099 33.3959 19.9144 33.7745L19.7595 33.859C19.5753 33.9581 19.3918 34.0579 19.2096 34.1605L18.9962 34.2831C18.8142 34.3877 18.6323 34.4926 18.4508 34.598L18.2541 34.7125C17.9292 34.9002 17.6151 35.0839 17.3189 35.3152C17.139 35.4704 17.139 35.4704 16.9592 35.5779L16.5368 35.8098V35.9795L16.1128 36.1491V36.3188C15.8583 36.3188 15.8583 36.3188 15.6039 36.5255C15.3309 36.7715 15.0486 37.0016 14.7611 37.2306C14.6146 37.3466 14.4704 37.4657 14.3318 37.5911V37.7607H14.0774V37.9303C13.9078 37.9303 13.9078 37.9304 13.6852 38.1477C13.4763 38.3654 13.2581 38.5626 13.0278 38.7574C12.851 38.9045 12.851 38.9045 12.7205 39.033V39.2027H12.4661C12.1972 39.606 11.874 39.9621 11.5338 40.307C11.2563 40.5808 10.9837 40.8541 10.7275 41.1482C10.6289 41.2634 10.53 41.3782 10.4307 41.4928L10.2458 41.6933L10.0596 41.8957L10.0526 41.9033C9.88354 42.0847 9.76714 42.2097 9.6906 42.4484L9.66742 42.5955H9.4978V42.7651H9.32819L9.22416 42.8807L9.10557 43.0461L8.9714 43.2319L8.81934 43.4437L8.63813 43.6845L8.45361 43.9314L8.43599 43.9549C8.28295 44.1587 8.15635 44.3274 8.07894 44.5742L8.05608 44.716H7.88646C7.80264 44.8335 7.71978 44.9518 7.64256 45.0737C7.57944 45.1738 7.51479 45.273 7.4486 45.3711L7.44771 45.3724C7.08961 45.8949 6.73299 46.4151 6.43414 46.9743C6.31046 47.2107 6.18478 47.4389 6.04157 47.6641C5.6086 48.3343 5.26335 49.028 4.92469 49.7497L4.91574 49.7688C4.74467 50.134 4.57388 50.4987 4.38949 50.8575C3.6819 52.2275 3.19787 53.662 2.71885 55.1257C2.63978 55.3674 2.56075 55.6089 2.47665 55.8489C1.80516 57.7124 1.43531 59.7183 1.15777 61.6768L1.12309 61.9292C1.06393 62.3451 1.01866 62.7536 1.01281 63.1742L1.01435 63.4913C1.01505 63.6792 1.01589 63.8671 1.01708 64.055C2.11493 64.0568 3.21279 64.0582 4.31065 64.0591L4.47766 64.0593C4.98374 64.0596 5.48983 64.06 5.99592 64.0608C6.5441 64.0618 7.09229 64.0626 7.64047 64.0629C7.85101 64.063 8.06154 64.0631 8.27207 64.0633C9.58836 64.0662 10.8976 64.0523 12.2116 63.9702C12.2964 63.7157 12.2964 63.7157 12.3125 63.4694L12.3203 63.17C12.3252 63.0018 12.33 62.8335 12.3344 62.6652C12.3619 61.5869 12.4126 60.522 12.551 59.4518L12.5827 59.2149C12.6576 58.6493 12.7354 58.0842 12.8209 57.52L12.853 57.3118C12.921 56.8616 13.0095 56.4334 13.1445 55.9971C13.2451 55.7131 13.3177 55.464 13.3618 55.1648L13.3989 54.8944C13.4837 54.8096 13.4837 54.8096 13.5473 54.5127C13.62 54.173 13.7083 53.8397 13.8043 53.506L13.8601 53.3146C13.9598 52.9666 14.0656 52.6324 14.2059 52.2981C14.2874 52.1119 14.3631 51.923 14.4315 51.7315C14.6052 51.2217 14.7923 50.7278 15.0209 50.2399L15.0361 50.2079C15.1435 49.9819 15.25 49.7577 15.3415 49.5246C15.4461 49.2331 15.558 48.9565 15.6993 48.6813C15.7905 48.5102 15.8589 48.3611 15.9107 48.1737L15.9431 48.024H16.1128C16.1697 47.9111 16.2261 47.7979 16.2824 47.6847C16.542 47.1357 16.8141 46.6179 17.157 46.1155C17.3137 45.8933 17.4507 45.71 17.5316 45.4502L17.5545 45.3097H17.7241L17.8646 45.1175L18.0209 44.8644C18.1622 44.6381 18.2987 44.4136 18.4211 44.1766L18.4874 44.0374H18.657L18.9962 43.3588H19.1658V43.1892H19.3354C19.399 42.9411 19.399 42.9411 19.5339 42.8105C19.7361 42.6241 19.9071 42.4637 20.0457 42.2244L20.0987 42.0865C20.2683 42.0865 20.2683 42.0865 20.3902 41.9686L20.5227 41.8109C20.6637 41.646 20.7759 41.4952 20.8779 41.3033L20.9468 41.1535H21.1164V40.9839H21.286V40.8142H21.5404V40.6446H21.71V40.475H21.8797L22.2189 40.1357C22.3895 40.0241 22.5593 39.9112 22.7277 39.7964V39.6268C22.9918 39.4996 23.2469 39.3654 23.491 39.2027V39.033C23.7105 39.033 23.7105 39.033 24.1694 38.6937V38.5241C24.4521 38.5241 24.4521 38.5241 24.8055 38.259C25.458 37.7696 26.1966 37.415 26.9331 37.0707L27.1854 36.9549C27.9236 36.6158 28.6619 36.322 29.4381 36.0829C29.6024 36.033 29.7624 35.9812 29.9219 35.9175C30.3477 35.7442 30.7729 35.6465 31.2242 35.5604L31.5159 35.5077C34.1781 35.0234 37.3225 34.7918 39.9436 35.6402L40.0284 35.8098H39.8588V35.9795C39.6892 35.9795 39.6892 35.9795 39.5296 36.0916C39.4169 36.1809 39.3028 36.2685 39.1869 36.3536C39.0703 36.4387 38.954 36.5242 38.8378 36.6098L38.6503 36.7482L38.4588 36.8875L38.2779 37.0215C38.1122 37.1431 38.1122 37.1431 37.993 37.2518V37.4214C37.7785 37.4214 37.7785 37.4214 37.3994 37.7607V37.9303H37.145C36.9787 38.0966 36.8048 38.2452 36.6254 38.397C36.4393 38.5533 36.4393 38.5533 36.2969 38.6937V38.8634H36.1273V39.033H35.9577V39.2027C35.7032 39.2027 35.7032 39.2027 35.5482 39.3254L35.3734 39.4996L35.1745 39.6961L34.9608 39.9114C34.8116 40.0601 34.6625 40.2089 34.5134 40.3578C34.2787 40.5942 34.0439 40.8304 33.8077 41.0653C33.6537 41.2182 33.5001 41.3714 33.3468 41.5249L33.1269 41.7456L32.9127 41.9582L32.7146 42.1588C32.5213 42.3528 32.4033 42.4937 32.291 42.7447L32.2261 42.9347H32.0565C31.8476 43.1646 31.6711 43.3737 31.5212 43.6451L31.4629 43.7829H31.2933V44.0374H31.1236C30.9702 44.2093 30.8785 44.3464 30.8109 44.5675L30.7844 44.716H30.6148L30.4521 44.9058L30.2597 45.1666C30.0069 45.509 29.7669 45.8567 29.5388 46.2162L29.5253 46.2379C29.3975 46.4437 29.2699 46.6489 29.135 46.8501C28.6188 47.6068 28.1328 48.3901 27.7261 49.2114C27.5985 49.4761 27.4685 49.7354 27.3249 49.9917C25.5191 53.211 24.5541 57.0483 24.0744 60.6807C24.0374 60.9669 24.0002 61.253 23.961 61.5389C23.9359 61.7201 23.9109 61.9013 23.8861 62.0825L23.8514 62.3374C23.7795 62.8561 23.7149 63.3611 23.7454 63.8853C23.915 64.055 23.915 64.055 24.1094 64.0657L24.3391 64.055C25.6672 64.0512 26.9953 64.0441 28.3234 64.0361C28.959 64.0323 29.5946 64.0286 30.2303 64.0263C30.7902 64.0243 31.3502 64.0219 31.9101 64.0182L31.9927 64.0176C32.2605 64.0157 32.5283 64.0138 32.7961 64.0131C33.0784 64.0126 33.3607 64.0116 33.643 64.0095L33.9543 64.0068L34.2508 64.0072L34.5201 64.004C34.7547 64.0028 34.7548 64.0028 34.94 63.9702C35.1096 63.7157 35.1096 63.7157 35.1315 63.5263L35.1326 63.3017L35.1352 63.0449C35.1356 62.855 35.1367 62.6652 35.1386 62.4753L35.1416 62.1724C35.167 58.778 35.3692 55.4169 36.2442 52.1205L36.2969 51.9257C36.5099 51.1319 36.7567 50.3584 37.0519 49.5913C37.1669 49.2936 37.2758 48.9959 37.3729 48.6919C37.4338 48.4921 37.5062 48.3181 37.5981 48.1293C37.671 47.9866 37.7438 47.8438 37.8146 47.7L37.8322 47.664C38.1069 47.1018 38.38 46.5429 38.7086 46.0095C38.8291 45.8216 38.9194 45.6712 38.9819 45.4568L39.0107 45.3097H39.1803L39.3208 45.1175L39.4772 44.8644C39.6184 44.6381 39.7549 44.4136 39.8773 44.1766L39.9436 44.0374H40.1132C40.2828 43.783 40.2828 43.783 40.3782 43.5974L40.4524 43.4437H40.6221C40.7746 43.2148 40.933 43.0465 41.1339 42.861L41.2687 42.7386C41.6043 42.4334 41.94 42.1345 42.3099 41.8708L42.4878 41.7473C43.6503 40.8956 44.8487 40.46 46.2628 40.246C48.154 40.0176 50.255 40.4366 51.7848 41.6094C51.9489 41.7483 52.0515 41.8262 52.2585 41.8884L52.4103 41.9169V42.0865C52.6647 42.2562 52.6647 42.2562 52.8502 42.3516L53.0039 42.4258V42.5955C53.1791 42.6709 53.1791 42.6709 53.2991 42.8131L53.4438 42.9825C53.552 43.1076 53.6598 43.2331 53.7672 43.3588L53.9321 43.5547L54.0905 43.7405C54.2352 43.9128 54.2353 43.9129 54.3608 44.0374H54.5304C54.5304 44.2296 54.5304 44.2296 54.7935 44.6139L54.9015 44.769C55.0273 44.9554 55.1551 45.1321 55.2937 45.3097H55.4633C55.4633 45.5642 55.4633 45.5642 55.541 45.7097C55.7844 46.0726 56.003 46.4429 56.209 46.8282L56.3167 47.0326C56.5522 47.4789 56.7747 47.9178 56.9421 48.3951C56.9831 48.5268 57.0271 48.6578 57.0747 48.7873C57.201 48.9964 57.3193 49.1838 57.4006 49.4146C57.4745 49.6868 57.5463 49.959 57.6441 50.2237C58.1886 51.5924 58.5036 53.079 58.745 54.5294L58.7761 54.7195C59.175 57.1522 59.3078 59.5452 59.3365 62.009L59.3399 62.3312C59.3422 62.5329 59.3444 62.7347 59.3466 62.9364L59.3484 63.223L59.3511 63.4841C59.352 63.6179 59.3553 63.7518 59.3644 63.8853C59.4493 63.9702 59.4493 63.9702 59.6343 63.9808L59.8839 63.9809L60.1693 63.9817L60.4852 63.9811C60.833 63.9816 61.1809 63.982 61.5288 63.9817C61.841 63.9814 62.1533 63.9815 62.4655 63.9816C62.9876 63.9818 63.5097 63.9818 64.0318 63.9814C64.6409 63.9809 65.2501 63.9808 65.8592 63.9812C66.3854 63.9816 66.9116 63.9818 67.4377 63.9817C67.751 63.9815 68.0642 63.9813 68.3775 63.9816C68.6775 63.9818 68.9774 63.982 69.2774 63.9816L69.6079 63.9811L69.9238 63.9817L70.2092 63.9809C70.3541 63.9809 70.4991 63.9785 70.6438 63.9702C70.7286 63.8853 70.7286 63.8853 70.7399 63.719L70.7392 63.5143C70.7396 63.3835 70.7364 63.2525 70.7286 63.122C70.6273 62.7109 70.6273 62.7108 70.6067 62.2844C70.5814 61.7763 70.5168 61.283 70.4365 60.7806L70.3894 60.4925C70.1899 59.2487 69.955 58.0172 69.6604 56.7926L69.6155 56.6067C69.5729 56.4282 69.5301 56.2498 69.4863 56.0716L69.4452 55.9053C69.3678 55.5908 69.2813 55.3051 69.1568 55.0057C69.0895 54.8537 69.0238 54.7006 68.9676 54.5441L68.9202 54.3924L68.8637 54.2159C68.3496 52.6022 67.6784 51.0595 66.9123 49.5507H66.7427V49.2114H66.5731C66.5731 48.9224 66.5731 48.9224 66.2878 48.4279L66.149 48.1936C66.0615 48.0441 65.9736 47.8948 65.8848 47.7461L65.7939 47.5946C65.6914 47.4234 65.585 47.2544 65.4706 47.0909H65.3009C65.3009 46.8275 65.2552 46.7217 65.1313 46.4972H64.9617C64.9231 46.3045 64.8734 46.1511 64.7818 45.9763L64.6701 45.7974C64.5592 45.6159 64.5592 45.6158 64.4529 45.4794H64.2833C64.2833 45.3097 64.2833 45.3097 64.1965 45.1633L64.0819 45.0022C63.9686 44.8399 63.9686 44.8399 63.8592 44.716H63.6896V44.4615H63.52C63.52 44.247 63.52 44.247 63.1808 43.8678H63.0112C63.0112 43.6981 63.0112 43.6981 62.8502 43.4775L62.6401 43.221C62.514 43.0652 62.3841 42.9122 62.2479 42.7651H62.0783V42.5955H61.9087C61.9087 42.3118 61.9086 42.3118 61.5941 41.9932L61.4568 41.8583C61.3618 41.7631 61.2667 41.6681 61.1716 41.5731C61.0206 41.4243 60.8697 41.2754 60.7199 41.1253C60.6223 41.0273 60.5246 40.9296 60.4266 40.832L60.2854 40.692L60.2618 40.6683C60.0509 40.4569 59.8502 40.2557 59.5878 40.1062L59.4493 40.0509V39.8812L59.4313 39.8608C59.2465 39.6501 59.1005 39.4836 58.8291 39.3882L58.686 39.3723V39.2027H58.5164V39.033H58.3468V38.8634H58.1771V38.6937C57.9474 38.4848 57.7382 38.3083 57.4669 38.1583L57.3291 38.1V37.9303H57.0747V37.7607C56.8202 37.5911 56.8202 37.5911 56.6347 37.4956L56.481 37.4214V37.2518H56.2266V37.0821C56.0447 36.9205 55.8781 36.8237 55.6541 36.727L55.4633 36.658V36.4884C55.2522 36.2953 55.0627 36.1595 54.8008 36.0431L54.6152 35.9795V35.8098L54.3608 35.6402C56.5184 35.1406 58.7689 34.9734 60.9771 35.1879L61.2302 35.2161C62.9083 35.3722 64.5888 35.7948 66.1384 36.4566L66.4034 36.5732C67.2601 36.8738 68.0883 37.2864 68.8629 37.7607L69.1312 37.929C69.2308 37.9913 69.3304 38.0536 69.43 38.1159C69.6748 38.2709 69.8913 38.4164 70.1684 38.5019L70.3046 38.5241V38.6937C70.4742 38.7786 70.4742 38.7786 70.6544 38.8263L70.8134 38.8634V39.033C71.0554 39.2451 71.3311 39.4162 71.6138 39.5684L71.7463 39.6268V39.7964C71.9395 39.8846 71.9395 39.8846 72.1597 40.088C72.3139 40.2187 72.448 40.3182 72.6262 40.4166L72.764 40.475V40.6446H72.9336V40.8142H73.188V40.9839H73.3576V41.2383C73.5978 41.3985 73.7321 41.5384 73.9142 41.7579C74.0682 41.9441 74.0682 41.9441 74.2057 42.0865H74.3753C74.3753 42.2562 74.3753 42.2562 74.4863 42.3718C74.644 42.5245 74.7623 42.6872 74.8895 42.8658C75.0197 43.0497 75.0197 43.0497 75.1386 43.1892H75.3082C75.3082 43.3588 75.3082 43.3588 75.4136 43.5238L75.552 43.7087C75.6892 43.8949 75.6892 43.8949 75.817 44.0374H75.9867C75.9867 44.2296 75.9867 44.2296 76.2497 44.6139L76.3577 44.769C76.4835 44.9554 76.6113 45.1321 76.7499 45.3097H76.9195C76.9195 45.5642 76.9195 45.5642 77.052 45.7762C77.4353 46.3261 77.7988 46.8816 78.0962 47.4832C78.2125 47.7233 78.329 47.9628 78.4536 48.1987L78.5537 48.3851C78.622 48.5122 78.6903 48.6392 78.7588 48.7661C78.9475 49.1116 79.1252 49.4514 79.262 49.8211C79.3301 50.0111 79.4006 50.1938 79.4816 50.379C79.8874 51.2452 80.2416 52.1016 80.5036 53.0217C80.5741 53.2703 80.6446 53.5177 80.7253 53.7632C80.8424 54.0988 80.9419 54.4326 81.0274 54.7778C81.1227 55.1723 81.2268 55.5634 81.3348 55.9547C81.4631 56.4124 81.5514 56.8674 81.6265 57.3368L81.6687 57.6087C81.8408 58.6977 81.9875 59.7857 82.0611 60.886L82.0775 61.1433C82.1048 61.5696 82.1315 61.996 82.1539 62.4227C82.1623 62.5859 82.1712 62.7491 82.1806 62.9123L82.1938 63.1418C82.2049 63.3956 82.2256 63.633 82.2624 63.8853C82.5168 64.055 82.5168 64.055 82.7174 64.0748L82.959 64.0727L83.2364 64.0716L83.5408 64.0678C83.8777 64.0657 84.2146 64.0634 84.5515 64.0598C84.8536 64.0565 85.1557 64.0539 85.4577 64.0516C85.9631 64.0477 86.4685 64.0433 86.9739 64.0382C87.5632 64.0322 88.1525 64.0267 88.7418 64.0221C89.3734 64.0172 90.0049 64.0119 90.6365 64.0062C90.8176 64.0046 90.9988 64.003 91.1799 64.0015C91.4701 63.9991 91.7603 63.9966 92.0504 63.9936L92.3701 63.9903L92.6755 63.988L92.9515 63.9847C93.1458 63.9829 93.3157 64.0266 93.457 63.8853C93.5566 61.3071 92.7831 58.2378 91.9622 55.8115C91.861 55.5223 91.761 55.2344 91.671 54.9414C91.5481 54.5291 91.4242 54.1218 91.2626 53.7228C91.1587 53.4735 91.0611 53.2243 90.9687 52.9704C90.7591 52.3899 90.5383 51.8281 90.2555 51.2789C90.1104 51.0037 89.9817 50.7435 89.8778 50.45L89.8102 50.2293H89.6406C89.5842 49.857 89.4551 49.5523 89.3014 49.2114H89.1318V48.8722H88.9622C88.9216 48.6562 88.8575 48.4935 88.7578 48.2957L88.6176 48.0452C88.535 47.8965 88.4521 47.748 88.3685 47.5999H88.1989C88.1989 47.3454 88.1989 47.3454 88.1247 47.1721L88.0293 46.9902C87.9732 46.8822 87.9168 46.7743 87.8597 46.6668H87.6901C87.6901 46.4972 87.6901 46.4972 87.6092 46.3531C87.4219 46.0658 87.2393 45.7776 87.0699 45.4794L86.9268 45.2249H86.7572C86.7572 45.0054 86.7572 45.0054 86.4179 44.5463H86.2483C86.2483 44.2919 86.2483 44.2919 86.0787 44.0374H85.9091C85.9091 43.8678 85.9091 43.8678 85.8087 43.7233C85.7236 43.6157 85.6391 43.5076 85.5569 43.3978C85.4847 43.3005 85.4121 43.2035 85.3391 43.1067L85.2253 42.956C85.0901 42.7737 84.9531 42.5997 84.8066 42.4258H84.637C84.637 42.1714 84.637 42.1714 84.4892 42.0136C84.2839 41.8189 84.1203 41.611 83.9479 41.3868C83.8426 41.2492 83.7339 41.1139 83.6193 40.9839H83.4497C83.4497 40.8142 83.4497 40.8142 83.3048 40.6487L83.1025 40.4475L82.8799 40.2253L82.644 39.9925L82.6392 39.9877C82.233 39.5818 81.828 39.177 81.3944 38.8001C81.2356 38.6637 81.0782 38.527 80.9247 38.3845L80.7796 38.2464C80.6872 38.1588 80.5949 38.0712 80.5026 37.9834C80.282 37.77 80.0877 37.5407 79.7873 37.4507L79.6334 37.4214V37.2518H79.4638V37.0821C79.3409 36.9754 79.2171 36.8695 79.0884 36.7699L78.9337 36.6527C78.6934 36.4645 78.4719 36.266 78.1745 36.1798L78.022 36.1491V35.9795C77.7676 35.8098 77.7676 35.8098 77.5397 35.7144L77.3436 35.6402V35.4706C77.174 35.3858 77.1739 35.3857 76.9513 35.2956L76.7499 35.2161V35.0465L76.5422 34.903L76.2676 34.7443C76.0051 34.5901 75.7826 34.4652 75.4868 34.3921L75.3082 34.3679V34.1983C74.8696 33.8786 74.8696 33.8786 73.6068 33.2681L73.3682 33.1539C72.9834 32.9696 72.6037 32.7898 72.2015 32.6466L72.0007 32.5867V32.417C72.3302 32.3716 72.6063 32.2597 72.906 32.1178L73.0873 32.03C73.8041 31.6879 74.5148 31.3337 75.2234 30.9751V30.8054C75.4822 30.7277 75.7142 30.6459 75.9502 30.5132L76.4077 30.2127C76.5404 30.1248 76.6731 30.0369 76.8069 29.9508L76.9517 29.8582L77.2323 29.6763C77.493 29.5077 77.4931 29.5076 77.6828 29.3635V29.1939C77.9921 29.1939 77.9921 29.1939 78.3613 28.8546V28.6849H78.6157C78.7734 28.5209 78.7734 28.5209 78.9135 28.4131L79.0616 28.3006C79.1708 28.2166 79.2802 28.1326 79.3896 28.0488C79.5891 27.8976 79.7812 27.7442 79.9726 27.5823V27.4126L80.3966 27.243V27.0734H80.5663V26.9037C80.7553 26.9037 80.7553 26.9037 81.1278 26.5332L81.2881 26.3709C81.4008 26.2581 81.5135 26.1452 81.6262 26.0323C81.8031 25.8538 81.98 25.6753 82.1576 25.4975C82.2732 25.3818 82.3888 25.2661 82.5042 25.1503L82.6715 24.982C82.9911 24.6618 83.3023 24.3379 83.5999 23.9971C83.7309 23.845 83.8617 23.6936 83.9976 23.5459L84.1142 23.4221L84.3296 23.1928C84.5295 22.9814 84.695 22.8265 84.7887 22.5501L84.8066 22.4082H84.9762L85.0872 22.2727L85.2306 22.069L85.435 21.8095L85.66 21.5229C85.8652 21.2656 86.0537 21.0219 86.1897 20.7195L86.2483 20.5422H86.4179V20.2877H86.5876C86.7752 19.9283 86.9552 19.5909 87.2183 19.2805C87.5624 18.8915 87.8578 18.3837 88.0015 17.8843L88.0293 17.7431H88.1989L88.3228 17.5198L88.4851 17.2236C88.6444 16.9344 88.7853 16.6606 88.8966 16.3496L88.9622 16.1315H89.1318L89.2216 15.9208L89.3385 15.6438L89.3408 15.6384C89.443 15.3972 89.5421 15.1636 89.6118 14.9109L89.6406 14.7744H89.8102C89.8287 14.5817 89.8287 14.5817 89.8951 14.3503C90.1224 14.0187 90.3037 13.7067 90.4537 13.3356C90.503 13.2103 90.5527 13.0851 90.6029 12.96L90.6805 12.7669C90.7685 12.5463 90.8585 12.3275 90.9515 12.1089C91.1161 11.7255 91.2682 11.3479 91.3845 10.9469C91.4441 10.7353 91.5068 10.5323 91.5882 10.328C91.7495 9.94566 91.8804 9.57491 91.9781 9.17099C92.0281 8.94947 92.0779 8.73088 92.1527 8.51628C92.3674 7.91492 92.504 7.29734 92.6395 6.67449L92.6831 6.47264C92.9095 5.42845 93.1099 4.38287 93.2646 3.32551L93.2926 3.13285C93.3202 2.94907 93.3474 2.76531 93.373 2.58125L93.3963 2.41055C93.4345 2.13505 93.4638 1.8773 93.4402 1.59972L93.4157 1.3959C93.4014 1.27508 93.387 1.15429 93.3721 1.03354C92.0019 1.03166 90.6317 1.03016 89.2614 1.02928C88.5955 1.02885 87.9296 1.02838 87.2636 1.02744C86.6785 1.02659 86.0935 1.02589 85.5084 1.02562L85.4213 1.0256C85.1415 1.02551 84.8618 1.02542 84.5821 1.02494C84.2863 1.02435 83.9905 1.02385 83.6948 1.02388L83.3689 1.02392L83.0574 1.02299L82.776 1.02334C82.633 1.02321 82.4899 1.02539 82.3472 1.03354C82.2624 1.11836 82.2624 1.11836 82.2399 1.34889C82.2312 1.50766 82.2225 1.66644 82.2134 1.8252L82.2033 2.00018C82.1862 2.3121 82.1678 2.62393 82.1488 2.93574L82.1372 3.1239C82.0601 4.3783 81.9315 5.61646 81.749 6.85995L81.7218 7.04518C81.6219 7.74109 81.508 8.42318 81.3226 9.10207C81.2414 9.38906 81.1625 9.67355 81.0978 9.96471C80.9605 10.634 80.7533 11.2718 80.5324 11.9172L80.5302 11.9236C80.4308 12.2134 80.3317 12.5025 80.2439 12.7961C80.1567 13.0952 80.0703 13.386 79.9517 13.6744L79.9477 13.6827C79.8086 13.971 79.6699 14.2585 79.5515 14.5561C78.9988 16.0058 78.2272 17.5248 77.3621 18.817L77.2164 19.0207L77.0617 19.2394C76.8418 19.5489 76.6264 19.8424 76.4743 20.1923L76.4107 20.3726H76.2411L76.1033 20.5687C75.7289 21.1567 75.321 21.7169 74.8524 22.2333C74.688 22.4085 74.5558 22.5579 74.4409 22.7691L74.3753 22.9172H74.2057C74.0456 23.1574 73.9057 23.2917 73.6863 23.4738C73.5001 23.6279 73.5001 23.6279 73.3576 23.7654V23.935H73.188C73.0502 24.0516 73.0502 24.0517 72.9336 24.1895V24.3591H72.764V24.5288H72.5944V24.6984C72.34 24.7832 72.34 24.7832 72.1481 24.9154L71.9424 25.0748C71.7347 25.2335 71.7346 25.2336 71.5767 25.377V25.5466H71.4071C71.1666 25.7886 70.9164 25.9612 70.6279 26.1456C70.4605 26.2523 70.2952 26.3626 70.135 26.4796V26.6493C69.8805 26.6493 69.8805 26.6493 69.7205 26.7622C69.5325 26.9106 69.3441 27.0186 69.1332 27.1317C68.9091 27.2514 68.6845 27.3701 68.4627 27.494C67.8628 27.8314 67.2688 28.132 66.6208 28.3669C66.3386 28.4674 66.0568 28.5618 65.7879 28.6949C65.2909 28.9725 64.7602 29.1043 64.2098 29.2359L64.0288 29.2787C62.1699 29.7277 60.3136 29.93 58.4013 29.8791L58.1771 29.8724C57.4483 29.8551 56.7356 29.7707 56.0137 29.6727L55.6965 29.6286L55.387 29.5871L55.0963 29.5444C54.7615 29.4966 54.5762 29.4627 54.3608 29.1939H54.6152V29.0242C54.9245 29.0242 54.9245 29.0242 55.2937 28.6849V28.5153C55.5899 28.4165 55.8058 28.2754 56.057 28.0912V27.9216H56.2266V27.7519C56.481 27.7519 56.481 27.7519 56.6357 27.6466L56.7937 27.5081C56.9537 27.3709 56.9537 27.3709 57.0747 27.243V27.0734C57.2443 27.0734 57.2443 27.0734 57.4649 26.9123L57.7213 26.7023C57.8771 26.5761 58.0301 26.4462 58.1771 26.31C58.1771 26.2523 58.2957 26.3189 58.2957 26.2629C58.3533 26.2629 58.2908 26.1403 58.3468 26.1403C58.3468 26.0827 58.4139 26.1447 58.4608 26.0978C58.5076 26.051 58.4604 25.9707 58.5164 25.9707C58.5164 25.913 58.5588 25.8994 58.5588 25.8435C58.7602 25.8093 58.837 25.732 58.9947 25.5989C59.2584 25.3135 59.5285 25.0499 59.8256 24.7991C60.0001 24.6544 60.0002 24.6543 60.1277 24.5288V24.3591H60.2973V24.1895H60.4669V24.0198C60.7214 23.935 60.7214 23.935 60.8522 23.8021C61.0505 23.5615 61.2484 23.3232 61.4687 23.1024C61.7926 22.79 62.0991 22.466 62.3956 22.1277L62.5341 21.9682C62.7687 21.7023 62.9763 21.466 63.1258 21.1422L63.1808 20.9663H63.3504C63.5434 20.7551 63.6792 20.5656 63.7956 20.3036L63.8592 20.1181H64.0288L64.1451 19.9352C64.2895 19.6832 64.4534 19.4596 64.6278 19.2275C64.8037 18.9943 64.9501 18.7875 65.0674 18.5198L65.1313 18.3369H65.3009C65.475 17.9345 65.4751 17.9344 65.725 17.5735C66.0283 17.1474 66.2876 16.7174 66.5201 16.2482C66.6755 15.929 66.8317 15.6113 67.0011 15.2992C67.4733 14.433 67.8501 13.5517 68.195 12.6274L68.2094 12.5881C68.2847 12.3834 68.3599 12.1787 68.4388 11.9754C68.6036 11.5965 68.7473 11.227 68.8629 10.8303C68.9166 10.6457 68.9732 10.4619 69.0325 10.279C69.2062 9.89558 69.3374 9.52952 69.4363 9.12035L69.4853 8.9099C69.5405 8.67754 69.5953 8.44512 69.6492 8.21246L69.7056 7.9676C69.9926 6.7315 70.2496 5.504 70.4116 4.24445C70.4426 3.99392 70.4748 3.74397 70.5115 3.4942L70.5501 3.24318C70.5742 3.08447 70.5984 2.92576 70.6226 2.76706C70.7088 2.2185 70.7689 1.67457 70.7286 1.11836C70.6438 1.03354 70.6438 1.03354 70.4603 1.02263L70.213 1.0222L69.9301 1.02111L69.617 1.02122C69.2722 1.02031 68.9274 1.01949 68.5825 1.01939C68.3353 1.01935 68.088 1.01919 67.8407 1.01889C67.2606 1.01819 66.6806 1.01775 66.1005 1.01781C65.4966 1.01787 64.8927 1.01742 64.2888 1.01609C63.7671 1.01493 63.2455 1.01419 62.7238 1.01411L62.6171 1.01413C62.342 1.01417 62.0669 1.01421 61.7918 1.01355C61.4945 1.01269 61.1972 1.01204 60.8998 1.01245L60.5718 1.01294L60.2593 1.0115L59.9757 1.01257C59.7282 1.01243 59.7282 1.01243 59.5341 1.03354C59.3644 1.20318 59.3644 1.20318 59.342 1.35838L59.3401 1.54936L59.3366 1.76739L59.3353 2.00533L59.3281 2.51075C59.3231 2.9668 59.3164 3.42277 59.3081 3.87877L59.3028 4.15268C59.2823 5.23453 59.2332 6.30989 59.1351 7.38786L59.11 7.64952C59.0041 8.75572 58.8356 9.84789 58.6347 10.9404L58.6012 11.1219C58.4957 11.6991 58.3987 12.2758 58.2103 12.8328C58.1418 13.0232 58.0821 13.2036 58.0327 13.4004C57.6674 15.0786 56.9595 16.6852 56.1524 18.1937L56.1308 18.2333C55.9754 18.5183 55.8224 18.7988 55.6959 19.0986L55.6329 19.2699H55.4633C55.3444 19.5733 55.2415 19.8205 55.0446 20.081C54.8031 20.3664 54.5985 20.6672 54.4244 20.9981L54.3608 21.1359H54.1912C54.0161 21.333 53.8714 21.5241 53.746 21.7562L53.6824 21.8993H53.5127C53.3256 22.1802 53.1309 22.333 52.8661 22.5408C52.7109 22.6622 52.5581 22.7869 52.4103 22.9172V23.0868C52.1558 23.0868 52.1558 23.0868 52.0502 23.1905L51.9014 23.3413C50.459 24.2908 48.8624 24.9262 47.1045 24.8783L46.8978 24.868C45.479 24.817 44.181 24.3797 42.9914 23.6116L42.9804 23.6042C42.7785 23.4666 42.6122 23.3533 42.3768 23.282L42.2334 23.2564L42.2334 23.0868C41.979 22.9172 41.979 22.9172 41.7934 22.8217L41.6397 22.7475V22.5779C40.9766 22.0724 40.9766 22.0724 40.4683 21.3957C40.3539 21.2494 40.2365 21.1052 40.1132 20.9663H39.9436C39.9436 20.7967 39.9436 20.7967 39.8101 20.5999C39.3058 19.9304 38.8709 19.2555 38.4747 18.5174C38.3995 18.3774 38.3242 18.2375 38.2475 18.0983C37.9686 17.5937 37.6749 17.0971 37.5001 16.545C37.456 16.3801 37.456 16.38 37.3994 16.2164C37.0346 15.5222 37.0346 15.5222 36.7875 14.7747L36.7315 14.6048C36.4118 13.6397 36.1188 12.6753 35.9154 11.6781L35.8728 11.4664C35.3032 8.74166 35.1575 5.99791 35.1392 3.2209L35.1373 2.89187C35.1358 2.68548 35.1342 2.4791 35.1328 2.27272L35.1331 1.98241L35.1312 1.716C35.1308 1.39305 35.1256 1.31207 34.94 1.03354L34.7474 1.00176L34.5022 1.0018L34.2211 1L33.9113 1.00196C33.5694 1.00098 33.2274 1.00019 32.8854 1.00146C32.5786 1.00263 32.2717 1.00286 31.9648 1.0027C31.4514 1.00243 30.9381 1.00294 30.4247 1.00443C29.8261 1.00624 29.2275 1.00728 28.6289 1.00677C28.0493 1.00626 27.4697 1.00629 26.8902 1.00723L26.8805 1.00725C26.6379 1.00765 26.3954 1.00805 26.1529 1.00796C25.8582 1.00775 25.5635 1.0078 25.2688 1.00893L24.9436 1.01025L24.6339 1.00961L24.3528 1.01143C24.0487 1.01209 23.9641 0.984418 23.7454 1.20318C23.7295 1.48945 23.7295 1.48945 23.7454 1.79693C23.7955 1.98957 23.8326 2.16325 23.8502 2.36246C23.8914 3.05664 23.9776 3.73945 24.0832 4.42609L24.1111 4.6066C24.2572 5.55853 24.4083 6.5074 24.6296 7.44526L24.6783 7.64952C24.8843 8.52923 25.0773 9.41693 25.3833 10.2683C25.489 10.5448 25.5936 10.8201 25.6875 11.1009C26.1624 12.5497 26.7263 13.9122 27.3921 15.2833H27.5617C27.5617 15.5671 27.6459 15.7269 27.7771 15.9738L27.8692 16.1422C28.0692 16.5128 28.2737 16.8748 28.5105 17.2236C28.7285 17.5372 28.9159 17.8612 29.0982 18.1967L29.1731 18.3369H29.3427C29.4223 18.5546 29.5052 18.7497 29.6289 18.9462L29.7667 19.1374L29.9241 19.3564C30.0214 19.4917 30.1185 19.6272 30.2138 19.764C30.2898 19.8737 30.366 19.9832 30.4424 20.0926L30.5565 20.2559C30.6844 20.4418 30.8142 20.6192 30.954 20.7967H31.1236V20.9663H31.2933C31.2933 21.1359 31.2933 21.1359 31.4327 21.3351L31.6166 21.5653C31.7985 21.7963 32.1619 22.1919 32.3351 22.3798C32.6077 22.6805 32.8759 22.9835 33.1378 23.2936C33.2796 23.4629 33.2796 23.4629 33.4134 23.5957L33.6679 23.6805V23.8502H33.8375V24.0198H34.0071V24.1895H34.1767V24.3591C34.3538 24.4371 34.3538 24.4371 34.4925 24.5846L34.6663 24.7647C34.7966 24.8979 34.9267 25.0313 35.0566 25.1649L35.254 25.37L35.4455 25.5651L35.4588 25.5789C35.6294 25.7552 35.741 25.8705 35.9791 25.9483L36.1273 25.9707V26.1403H36.2969V26.31H36.4665V26.4796C36.7428 26.7704 37.0373 27.0218 37.3994 27.1953L37.569 27.243V27.4126C37.6819 27.5076 37.7957 27.6017 37.9137 27.6904C38.0137 27.7641 38.1133 27.8382 38.2125 27.9128L38.3657 28.0286C38.6428 28.2376 38.9123 28.4538 39.1803 28.6743C39.4002 28.8561 39.6204 29.0371 39.8429 29.2157L40.0284 29.3635C38.4822 29.7665 36.8758 29.8933 35.2826 29.894L35.1043 29.8936C34.1908 29.8926 33.3027 29.8463 32.4012 29.698L32.2102 29.6657C31.8461 29.6069 31.494 29.5418 31.1382 29.4427L30.8692 29.3635C30.3639 29.2926 29.9362 29.1733 29.4593 28.9924C29.2579 28.9157 29.0565 28.8443 28.8514 28.7777C27.5047 28.3456 26.2269 27.6805 25.0228 26.9408C24.8399 26.8236 24.696 26.7392 24.4871 26.6787L24.3391 26.6493V26.4796C24.0147 26.2892 24.0147 26.2892 23.7136 26.0608C23.4923 25.8964 23.2805 25.7396 23.0371 25.6099L22.8973 25.5466V25.377L22.7609 25.255L22.5793 25.1225C22.399 24.9889 22.2256 24.8715 22.0267 24.7673L21.8797 24.6984V24.5288H21.71V24.3591H21.5404V24.1895H21.286V24.0198H21.1164V23.7654C20.8762 23.6052 20.7419 23.4653 20.5598 23.2458C20.4058 23.0596 20.4058 23.0596 20.2683 22.9172H20.0987V22.7475H19.9291C19.8443 22.4931 19.8443 22.4931 19.6935 22.2827L19.5104 22.0531C19.3278 21.8215 19.3278 21.8215 19.1658 21.6449H18.9962C18.9962 21.4253 18.9962 21.4253 18.657 20.9663H18.4874C18.4874 20.7967 18.4874 20.7967 18.4006 20.6502L18.2859 20.4892C18.1727 20.3268 18.1726 20.3268 18.0633 20.2029H17.8937V19.9485H17.7241C17.7241 19.7788 17.7241 19.7788 17.575 19.5469C17.3612 19.2354 17.1638 18.9157 16.9668 18.5934L16.7064 18.1672C16.1423 17.2676 15.6487 16.3313 15.2753 15.3364C15.2184 15.1761 15.1591 15.0167 15.0951 14.8592C14.9103 14.6745 14.8377 14.4999 14.7421 14.2597L14.6763 14.0906C14.5379 13.7438 14.4073 13.3957 14.2893 13.0414C14.2258 12.8478 14.1623 12.6544 14.0972 12.4614L14.032 12.2692L13.9025 11.8852C13.7777 11.5191 13.6568 11.1552 13.5649 10.7793C13.5385 10.6689 13.5114 10.5587 13.4837 10.4486C12.7908 8.20616 12.4339 5.82118 12.3644 3.47688L12.3586 3.27352C12.3498 2.96748 12.341 2.66146 12.3357 2.35533L12.3328 2.17607L12.3256 1.83801C12.3199 1.47777 12.3288 1.33663 12.1268 1.03354L11.934 1.002L11.6884 1.00237L11.407 1.00094L11.0969 1.00331C10.7545 1.00276 10.4121 1.0024 10.0697 1.00405C9.76255 1.00556 9.4554 1.00606 9.14824 1.00615C8.6345 1.00627 8.12076 1.00712 7.60702 1.00896C6.9415 1.01141 6.276 1.0129 5.61048 1.01328C5.03486 1.01361 4.45924 1.01443 3.88362 1.01559C3.69946 1.01597 3.51531 1.01632 3.33115 1.01656C3.03608 1.01694 2.74101 1.01749 2.44594 1.0186L2.12088 1.01988L1.81021 1.02016Z" stroke="black" stroke-width="2" mask="url(#path-1-outside-1_80_198)"/>
</svg>
